<svg viewBox="0 0 1446 400" xmlns="http://www.w3.org/2000/svg"><g><g><g><g><g><line x1="50" y1="378" x2="45" y2="378" style="visibility: inherit;" fill="rgb(0, 0, 0)" stroke="rgb(204, 204, 204)" stroke-width="1px"></line><line x1="50" y1="340.2" x2="45" y2="340.2" style="visibility: inherit;" fill="rgb(0, 0, 0)" stroke="rgb(204, 204, 204)" stroke-width="1px"></line><line x1="50" y1="302.40000000000003" x2="45" y2="302.40000000000003" style="visibility: inherit;" fill="rgb(0, 0, 0)" stroke="rgb(204, 204, 204)" stroke-width="1px"></line><line x1="50" y1="264.59999999999997" x2="45" y2="264.59999999999997" style="visibility: inherit;" fill="rgb(0, 0, 0)" stroke="rgb(204, 204, 204)" stroke-width="1px"></line><line x1="50" y1="226.79999999999998" x2="45" y2="226.79999999999998" style="visibility: inherit;" fill="rgb(0, 0, 0)" stroke="rgb(204, 204, 204)" stroke-width="1px"></line><line x1="50" y1="189" x2="45" y2="189" style="visibility: inherit;" fill="rgb(0, 0, 0)" stroke="rgb(204, 204, 204)" stroke-width="1px"></line><line x1="50" y1="151.20000000000002" x2="45" y2="151.20000000000002" style="visibility: inherit;" fill="rgb(0, 0, 0)" stroke="rgb(204, 204, 204)" stroke-width="1px"></line><line x1="50" y1="113.40000000000002" x2="45" y2="113.40000000000002" style="visibility: inherit;" fill="rgb(0, 0, 0)" stroke="rgb(204, 204, 204)" stroke-width="1px"></line><line x1="50" y1="75.59999999999998" x2="45" y2="75.59999999999998" style="visibility: inherit;" fill="rgb(0, 0, 0)" stroke="rgb(204, 204, 204)" stroke-width="1px"></line><line x1="50" y1="37.79999999999999" x2="45" y2="37.79999999999999" style="visibility: inherit;" fill="rgb(0, 0, 0)" stroke="rgb(204, 204, 204)" stroke-width="1px"></line><line x1="50" y1="0" x2="45" y2="0" style="visibility: inherit;" fill="rgb(0, 0, 0)" stroke="rgb(204, 204, 204)" stroke-width="1px"></line></g><g transform="translate(40, 0)"><text x="0" y="378" dx="0em" dy="0.3em" style="text-anchor: end; visibility: hidden; font-family: Roboto, sans-serif; font-size: 12px; font-weight: 200;" fill="rgb(50, 49, 63)" stroke="none" stroke-width="1px">-300</text><text x="0" y="340.2" dx="0em" dy="0.3em" style="text-anchor: end; visibility: inherit; font-family: Roboto, sans-serif; font-size: 12px; font-weight: 200;" fill="rgb(50, 49, 63)" stroke="none" stroke-width="1px">-250</text><text x="0" y="302.40000000000003" dx="0em" dy="0.3em" style="text-anchor: end; visibility: inherit; font-family: Roboto, sans-serif; font-size: 12px; font-weight: 200;" fill="rgb(50, 49, 63)" stroke="none" stroke-width="1px">-200</text><text x="0" y="264.59999999999997" dx="0em" dy="0.3em" style="text-anchor: end; visibility: inherit; font-family: Roboto, sans-serif; font-size: 12px; font-weight: 200;" fill="rgb(50, 49, 63)" stroke="none" stroke-width="1px">-150</text><text x="0" y="226.79999999999998" dx="0em" dy="0.3em" style="text-anchor: end; visibility: inherit; font-family: Roboto, sans-serif; font-size: 12px; font-weight: 200;" fill="rgb(50, 49, 63)" stroke="none" stroke-width="1px">-100</text><text x="0" y="189" dx="0em" dy="0.3em" style="text-anchor: end; visibility: inherit; font-family: Roboto, sans-serif; font-size: 12px; font-weight: 200;" fill="rgb(50, 49, 63)" stroke="none" stroke-width="1px">-50</text><text x="0" y="151.20000000000002" dx="0em" dy="0.3em" style="text-anchor: end; visibility: inherit; font-family: Roboto, sans-serif; font-size: 12px; font-weight: 200;" fill="rgb(50, 49, 63)" stroke="none" stroke-width="1px">0</text><text x="0" y="113.40000000000002" dx="0em" dy="0.3em" style="text-anchor: end; visibility: inherit; font-family: Roboto, sans-serif; font-size: 12px; font-weight: 200;" fill="rgb(50, 49, 63)" stroke="none" stroke-width="1px">50</text><text x="0" y="75.59999999999998" dx="0em" dy="0.3em" style="text-anchor: end; visibility: inherit; font-family: Roboto, sans-serif; font-size: 12px; font-weight: 200;" fill="rgb(50, 49, 63)" stroke="none" stroke-width="1px">100</text><text x="0" y="37.79999999999999" dx="0em" dy="0.3em" style="text-anchor: end; visibility: inherit; font-family: Roboto, sans-serif; font-size: 12px; font-weight: 200;" fill="rgb(50, 49, 63)" stroke="none" stroke-width="1px">150</text><text x="0" y="0" dx="0em" dy="0.3em" style="text-anchor: end; visibility: hidden; font-family: Roboto, sans-serif; font-size: 12px; font-weight: 200;" fill="rgb(50, 49, 63)" stroke="none" stroke-width="1px">200</text></g><line x1="50" y1="0" x2="50" y2="378" fill="rgb(0, 0, 0)" stroke="rgb(204, 204, 204)" stroke-width="1px"></line></g></g><g transform="translate(50, 0)" clip-path="url(#clip_0)"><clipPath id="clip_0"><rect width="1396" height="378"></rect></clipPath><g><g><g><line x1="0" y1="0" x2="0" y2="378" fill="rgb(0, 0, 0)" stroke="rgb(60, 60, 60)" stroke-width="1px" opacity="0.25"></line><line x1="139.6" y1="0" x2="139.6" y2="378" fill="rgb(0, 0, 0)" stroke="rgb(60, 60, 60)" stroke-width="1px" opacity="0.25"></line><line x1="279.2" y1="0" x2="279.2" y2="378" fill="rgb(0, 0, 0)" stroke="rgb(60, 60, 60)" stroke-width="1px" opacity="0.25"></line><line x1="418.8" y1="0" x2="418.8" y2="378" fill="rgb(0, 0, 0)" stroke="rgb(60, 60, 60)" stroke-width="1px" opacity="0.25"></line><line x1="558.4" y1="0" x2="558.4" y2="378" fill="rgb(0, 0, 0)" stroke="rgb(60, 60, 60)" stroke-width="1px" opacity="0.25"></line><line x1="698" y1="0" x2="698" y2="378" fill="rgb(0, 0, 0)" stroke="rgb(60, 60, 60)" stroke-width="1px" opacity="0.25"></line><line x1="837.6" y1="0" x2="837.6" y2="378" fill="rgb(0, 0, 0)" stroke="rgb(60, 60, 60)" stroke-width="1px" opacity="0.25"></line><line x1="977.1999999999999" y1="0" x2="977.1999999999999" y2="378" fill="rgb(0, 0, 0)" stroke="rgb(60, 60, 60)" stroke-width="1px" opacity="0.25"></line><line x1="1116.8" y1="0" x2="1116.8" y2="378" fill="rgb(0, 0, 0)" stroke="rgb(60, 60, 60)" stroke-width="1px" opacity="0.25"></line><line x1="1256.4" y1="0" x2="1256.4" y2="378" fill="rgb(0, 0, 0)" stroke="rgb(60, 60, 60)" stroke-width="1px" opacity="0.25"></line><line x1="1396" y1="0" x2="1396" y2="378" fill="rgb(0, 0, 0)" stroke="rgb(60, 60, 60)" stroke-width="1px" opacity="0.25"></line></g><g><line x1="0" y1="378" x2="1396" y2="378" fill="rgb(0, 0, 0)" stroke="rgb(60, 60, 60)" stroke-width="1px" opacity="0.25"></line><line x1="0" y1="340.2" x2="1396" y2="340.2" fill="rgb(0, 0, 0)" stroke="rgb(60, 60, 60)" stroke-width="1px" opacity="0.25"></line><line x1="0" y1="302.40000000000003" x2="1396" y2="302.40000000000003" fill="rgb(0, 0, 0)" stroke="rgb(60, 60, 60)" stroke-width="1px" opacity="0.25"></line><line x1="0" y1="264.59999999999997" x2="1396" y2="264.59999999999997" fill="rgb(0, 0, 0)" stroke="rgb(60, 60, 60)" stroke-width="1px" opacity="0.25"></line><line x1="0" y1="226.79999999999998" x2="1396" y2="226.79999999999998" fill="rgb(0, 0, 0)" stroke="rgb(60, 60, 60)" stroke-width="1px" opacity="0.25"></line><line x1="0" y1="189" x2="1396" y2="189" fill="rgb(0, 0, 0)" stroke="rgb(60, 60, 60)" stroke-width="1px" opacity="0.25"></line><line x1="0" y1="151.20000000000002" x2="1396" y2="151.20000000000002" fill="rgb(0, 0, 0)" stroke="rgb(60, 60, 60)" stroke-width="1px" opacity="0.25"></line><line x1="0" y1="113.40000000000002" x2="1396" y2="113.40000000000002" fill="rgb(0, 0, 0)" stroke="rgb(60, 60, 60)" stroke-width="1px" opacity="0.25"></line><line x1="0" y1="75.59999999999998" x2="1396" y2="75.59999999999998" fill="rgb(0, 0, 0)" stroke="rgb(60, 60, 60)" stroke-width="1px" opacity="0.25"></line><line x1="0" y1="37.79999999999999" x2="1396" y2="37.79999999999999" fill="rgb(0, 0, 0)" stroke="rgb(60, 60, 60)" stroke-width="1px" opacity="0.25"></line><line x1="0" y1="0" x2="1396" y2="0" fill="rgb(0, 0, 0)" stroke="rgb(60, 60, 60)" stroke-width="1px" opacity="0.25"></line></g></g></g><g><g><line x1="0" y1="151.20000000000002" x2="1396" y2="151.20000000000002" fill="rgb(0, 0, 0)" stroke="rgb(153, 153, 153)" stroke-width="1.5px"></line></g></g><g><g><line x1="139.6" y1="0" x2="139.6" y2="378" fill="rgb(0, 0, 0)" stroke="rgb(153, 153, 153)" stroke-width="1.5px"></line></g></g><g><g><g><g><g><path stroke="rgb(255, 112, 67)" stroke-width="2px" d="M140.7168,255.34865533447265L143.5088,242.63253945922855L143.78799999999998,236.0822856183733L144.6256,195.19682393183425L144.9048,221.9703553062349L145.7424,239.3469189772427L146.85920000000002,276.8796516416554L147.1384,300.0759618116668L150.768,281.97996651871404L152.7224,297.21062551773366L153.0016,263.5814397440912L153.2808,244.22173652503147L154.6768,285.9084408177773L156.9104,245.65380343584562L157.1896,243.1935803186288L158.0272,233.5092636731934L158.3064,238.4016941292509L159.144,230.09086616801585L159.4232,232.24285389824277L161.0984,288.3119606053384L162.4944,258.687653644681L164.4488,311.0343404113345L167.2408,301.06461208510854L168.3576,268.70460817972184L169.1952,261.67097542859074L169.4744,248.38167009535195L173.38320000000002,238.76559928312642L174.5,235.10007287065508L174.7792,229.22257301430938L175.33759999999998,314.36027381195146L175.89600000000002,293.8544300486318L177.5712,261.975034410463L179.8048,328.5074976026307L180.3632,276.7155537305101L180.64239999999998,261.728538364946L181.48000000000002,246.92990179699228L183.43439999999998,277.3820031807154L184.27200000000002,412.9408872750668L184.8304,346.38304109126653L185.3888,298.3942456599469L187.34320000000002,300.326683701229L187.6224,295.70976480835935L189.01839999999999,275.83195039538936L190.9728,251.38725787948314L191.252,224.84122366413953L191.53119999999998,276.46335324467196L192.9272,343.340023375087L193.2064,373.6560302854985L195.16080000000002,394.21421602313853L195.9984,366.76103295838783L196.2776,406.14173774397364L198.5112,398.40787105656705L199.0696,368.52788896691675L199.628,369.4799153625725L201.02399999999997,373.5839177234044L201.3032,294.5395038933021L202.1408,385.9435461836499L203.53680000000003,294.6009098894428L207.7248,274.38040483259044L208.004,308.6544378214303L211.63360000000003,261.26633702147063L211.91279999999998,301.24531881444534L212.192,360.8177903121051L215.2632,369.95478898218494L216.1008,396.605846436186L217.21759999999998,446.32241425819603L218.33440000000002,332.90223378135795L219.172,369.0123796242835L220.00959999999998,401.5145809483983L220.568,352.41448960907803L221.964,285.9818531343433L222.52239999999998,340.3492606110747L222.80159999999998,317.08937262641047L225.59359999999998,383.99448739420563L226.7104,301.2390361804199L227.8272,301.5968646525879L228.38559999999998,322.59804105717774L228.6648,341.1564366460254L229.5024,340.32348273956836L233.69039999999998,322.66646020038166L233.96959999999999,280.3519696993306L235.924,306.99576443678586L236.20319999999998,340.0197452831652L237.8784,421.8773335956804L238.4368,375.9796624376817L239.55360000000002,390.29937793135906L241.2288,339.03660988869825L241.50799999999998,390.52934503478144L241.78719999999998,347.39747442809545L242.0664,314.7758785777557L245.13760000000002,258.9538423322003L247.3712,359.5584646278358L248.488,294.8628230699144L249.0464,302.5814636417533L250.4424,365.86958702294265L251.8384,437.3222145184531L252.39679999999998,415.9446622071656L255.468,371.97127688972904L257.1432,444.0858923057124L258.5392,385.26416691365023L261.3312,359.2988159440886L261.6104,402.5066756992657L262.1688,345.19956140100476L263.2856,340.4073402829856L263.5648,289.3903668895179L264.1232,334.31141656925763L265.24,431.7567182032733L266.9152,380.50873117036593L268.3112,333.8498200742899L269.428,342.89138130238643L270.2656,418.6623579806506L270.824,354.5113301204216L271.9408,320.38083173924514L272.22,277.0005938311447L273.616,305.5466417479056L273.89520000000005,268.3879287743293L275.5704,247.61190384662882L276.1288,242.65772151940303L277.5248,234.15727358546997L281.992,198.48931350125756L282.27119999999996,267.4399557277077L282.55039999999997,317.9616970694371L282.8296,404.3693604779904L283.10880000000003,342.4048999537864L283.9464,337.62255860020156L284.2256,325.9607132118788L284.5048,320.68953219958814L288.41360000000003,338.10372332365915L288.69280000000003,375.4125248633361L289.2512,320.461622071322L289.5304,292.15774233459007L289.8096,277.84017606481655L290.368,304.06964247971024L291.4848,315.42234698684956L292.0432,348.45318387570353L293.15999999999997,392.73020554026584L293.71840000000003,343.73093318744077L294.8352,331.9971111819957L296.5104,268.12139989401186L297.0688,282.05352143054773L298.1856,242.01818502019387L299.58160000000004,286.6467261976632L302.6528,310.5717966072698L302.932,348.2220855327213L303.76959999999997,288.0336711316445L304.328,296.5891551936351L304.60720000000003,319.4998290048529L305.4448,338.77860843806803L306.0032,379.16802541440325L307.9576,395.8931799459076L309.3536,332.94859662721257L310.7496,350.2767147634369L311.0288,356.7033490240778L313.26239999999996,315.364367739642L313.5416,278.3440300431992L314.3792,317.9469306235758L314.9376,288.37176354992675L315.2168,318.4012305908936L316.3336,324.112196118208L317.4504,342.70482572756544L319.1256,347.8271506611486L319.4048,316.3365338537204L320.8008,342.72606542941975L321.3592,343.4662333006206L322.476,289.67830211416145L323.3136,311.5783374696687L323.872,284.8235709998677L325.8264,248.75938327374874L326.66400000000004,208.35147331218013L328.06,201.6879844206577L328.3392,273.90159978325397L329.45599999999996,250.76563725032352L330.57280000000003,295.7043873306628L332.8064,309.3194154794524L333.3648,328.4662362017339L334.2024,330.99499958236845L337.832,332.7322838802805L339.228,255.07426542094174L340.9032,288.1522659176041L341.46160000000003,314.6411657517343L342.02,319.56334635045465L342.2992,307.40885480734306L342.8576,308.21319950549963L343.1368,271.54453636589744L343.6952,292.2943978937572L343.9744,296.2369707675043L344.2536,256.2245212849655L345.64959999999996,250.37688657469025L347.3248,271.69575364891574L352.90880000000004,246.72785931825567L353.188,251.51817923841432L355.1424,270.57395041414236L355.98,230.97203231818762L356.25919999999996,287.7614915588813L356.81759999999997,278.61514452028973L357.37600000000003,299.8655068293614L357.93440000000004,315.97632509371056L359.6096,312.8234203980232L364.0768,254.08607525211957L364.356,230.1556936498069L364.91440000000006,283.5636523226966L365.752,276.97405435748516L367.9856,304.1816105930067L368.2648,253.5984947371517L370.7776,282.6441292885801L371.8944,236.85230950979354L372.1736,291.145886828923L372.732,236.87636523257717L373.0112,273.9073196034135L374.12800000000004,249.58145608089575L374.9656,191.69755976914294L375.524,244.67468149136855L377.1992,226.98482660722348L378.8744,277.3818786303497L379.71200000000005,276.8716370903192L380.27039999999994,242.80963420121302L381.3872,254.3882076691653L382.504,203.08594050115735L382.7832,193.5347077211046L386.4128,234.50182827035803L386.9712,267.5481285784258L388.64639999999997,241.76211996932113L389.48400000000004,214.34717925393147L390.0424,208.30858318712455L391.1592,180.55807995072686L391.4384,171.8706087721329L393.1136,219.04562600546726L393.67199999999997,219.8135624441007L395.90560000000005,166.20988916323773L398.6976,217.6969972430598L399.256,259.8690644835312L399.8144,268.40884462273596L402.6064,245.5240801134853L404.56080000000003,270.78922780441934L405.3984,168.70550714163593L406.236,223.91187447541125L408.4696,239.7769171657155L412.9368,268.67409063146056L413.7744,273.2804115566107L414.8912,240.9378451700504L416.5664,231.04121441404197L417.1248,177.7827231796752L418.5208,202.27070425692622L419.3584,240.7641230912651L419.63759999999996,137.29453867409498L419.9168,196.9429537952773L420.47520000000003,256.4657378533383L422.4296,227.20299631307716L422.988,256.58933611792446L424.9424,288.0371553572781L426.05920000000003,244.597316889904L426.6176,264.6522065890205L428.85119999999995,244.92882377030682L429.1304,285.9759304926529L431.6432,198.1861385812362L434.43519999999995,243.4454304387808L435.552,237.77086575838567L436.1104,265.25994882514857L438.344,278.3723197101282L438.6232,192.01433441640893L439.1816,232.64142506390792L440.2984,253.96316075123534L442.8112,226.00044242242092L446.1616,261.98834914485883L447.27840000000003,295.3631206197278L447.8368,212.62745380494215L448.67440000000005,156.51091879175436L449.23279999999994,232.26415815981824L449.7912,157.98249767909405L452.5832,220.80062050687056L452.86240000000004,146.87848551213014L453.7,203.1298353014187L453.9792,229.32271236249187L454.81679999999994,220.6993152959131L455.6544,252.52375509551658L456.21279999999996,226.4600954950541L457.6088,176.94794445523556L459.5632,141.7401585920867L460.9592,123.07445505515432L461.2384,156.29459412684258L464.0304,164.30035421170126L464.5888,206.3413541529973L467.38079999999997,247.29318583164215L467.93919999999997,275.77673249507905L468.2184,278.3865212109146L469.6144,298.89006985545507L470.1728,213.8198812321207L471.5688,247.2902647011865L472.6856,270.86978382071186L472.96479999999997,241.51284106269082L476.3152,271.64243444718477L478.54879999999997,301.83190202573275L479.66560000000004,296.8135560347756L481.0616,212.43120549586538L481.61999999999995,236.92521616861293L482.7368,213.09335887597246L486.9248,186.07814910091307L487.4832,143.5826591993174L488.59999999999997,219.83956685748106L488.8792,210.87730705784801L489.1584,187.91775473069575L489.7168,214.8935802798237L490.5544,129.0295084462145L491.392,212.64684515561933L491.6712,201.9412100474732L493.3464,237.59451230778078L494.46320000000003,276.0856918817388L495.85920000000004,190.59162395472686L496.41760000000005,136.49079879910562L497.5344,115.25064907926806L498.37199999999996,205.87915871025618L499.768,154.9920915640443L500.6056,216.73869060737192L502.00159999999994,209.33603373087823L502.2808,161.92227072680816L503.1184,180.41728936479583L504.2352,236.38434481028375L506.748,234.28818872210778L508.7024,220.03488436973925L509.53999999999996,254.41809197438263L509.8192,186.27512028472725L512.332,233.12666948528948L515.124,167.13727217457213L515.9616,231.54007167876668L517.6368,262.33139459417407L519.312,183.60365676382867L520.4288,110.33030069892217L523.5,152.57533786564238L523.7792,201.639386923487L524.896,251.06440947342813L526.5712,151.23777937546313L527.688,161.94282860550248L528.5255999999999,89.04840094748117L535.2264,186.0688668136059L536.3432,154.5597213271772L539.1351999999999,132.63289761564226L540.5312,149.87358087285216L541.0896,126.43752963943395L541.3688,89.21694124557442L541.648,130.06513911868257L541.9272,113.12046428175638L544.1608,203.04823933565538L546.3944,245.9783693582292L546.6736,265.6275806969688L547.232,210.60380447897225L547.5112,138.01909762878964L550.8616,153.21560817444174L551.1408,225.04384600818068L551.6992,247.16738580315058L554.7704,279.83078250728096L555.6080000000001,298.59704980222017L556.7248,204.8107439926602L557.8416,242.53195508700242L558.9584,141.29292356489674L560.9128,166.7596282722388L561.192,224.39859087935892L561.4712,214.87523547243958L562.0296000000001,157.95505447926453L562.8672,227.14745605181653L566.2176000000001,139.12436418284773L567.8928,79.9143079384196L568.7304,123.3505004429834L569.0096,204.78305475797754L571.8016,116.73937145341934L572.6392,184.55842294529378L572.9184,109.23627361580908L575.7103999999999,56.00216451128231L576.548,12.120719654035025L576.8272000000001,85.95895037152255L577.3856000000001,176.65605471998387L578.5024,115.07612565425592L578.7816,183.22761213571764L579.6192,171.87061032876335L580.736,215.73714871678925L582.132,194.8367852627884L585.2032,166.10034808028047L586.5992,95.24242151906672L587.1576,190.84126128546342L589.3912,236.81205083866087L593.8584,250.5301702492903L596.092,138.6888943126601L596.6504,166.37444631659997L597.4879999999999,105.42514015324124L599.1632000000001,93.42998844985489L599.4424,70.2104570347567L601.3968,52.0789376241743L603.6304,36.02079382450459L604.7471999999999,100.49852691726132L605.864,176.9595184208646L606.9808,96.84192113552656L607.8184,175.86807187076909L608.3768,222.3189856029302L610.052,203.50564040655797L610.6104,235.9963900056535L610.8896,255.6007513862046L612.5648,226.5881709122892L612.844,135.0171356772563L614.7984,73.02023719248655L615.3568,93.81567528668336L616.1944,132.62703927235182L616.7528000000001,159.297176840999L617.032,177.06364659532204L617.3112,90.23228737125571L619.2656,72.13847549892527L620.3824000000001,24.128618209511412L620.6616,125.75751470012094L621.22,79.81763565112726L622.616,51.712783392629454L624.8496,30.19218021624176L625.1288,136.1888453123622L626.2456,189.64611766105017L626.804,104.29515021088791L629.0376,176.0222083394234L629.3168,104.6243557409587L632.388,67.83806002660648L635.1800000000001,116.58922108066119L635.7384000000001,48.830881574177916L637.6928,146.44106578532705L637.972,198.4485256284228L638.2512,184.84180405503218L639.0888,100.97875259903496L639.9264,56.18995153500689L641.0432,96.78133898893628L642.1600000000001,134.9484662839868L647.4648,199.909266855353L648.5816,258.6017279354774L649.6984,236.8585546690013L650.5360000000001,258.2566387096039L651.0944,250.9434518048639L652.2112,271.6054963026449L652.7696,281.440554837251L655.2823999999999,212.9670860761787L656.3992000000001,115.18581028828537L658.9119999999999,68.70134325304933L660.308,43.19245985807961L660.5872,38.12310865410556L660.8664,141.56417175984615L664.496,198.51293584399363L665.3336,181.92513860295384L666.7296,187.24076538833478L668.684,239.02763855428992L669.8008,260.56037043726144L670.6384,237.15035896889984L672.3136,188.71059605150595L672.5928,123.068472645552L672.872,157.54458778654995L673.7095999999999,95.06950013286745L675.1056,40.045533624642324L676.7808,26.222179574199455L677.06,45.96355089637511L679.852,29.19785961497352L680.1312,131.32978615472632L681.2479999999999,204.98829442232798L681.5272,187.56055731135575L682.644,183.7136051875947L683.2024,244.0171794943928L684.8776,174.68117548228017L685.7152,99.40372518682908L686.832,51.34818975076932L687.1112,155.28732234655536L687.6696,164.81096655856794L687.9488,90.82884455916422L688.5072,184.49037624233446L691.5784,233.10548365555692L692.1368,259.76796328903725L694.3704,236.63471526590286L694.6496,271.80691790465886L695.4871999999999,247.78044942443594L705.2592,203.46092350597993L707.772,99.01192802936923L708.0512,60.139748687738724L710.0056000000001,49.55338456420576L711.1224,30.872509156492164L713.0768,85.59642800060921L713.356,43.51192970075612L716.7063999999999,143.3466356036568L717.544,73.80095770496752L720.0568000000001,150.6310176649727L722.2904,105.28729143394456L722.8488000000001,66.87300962599176L725.0824,107.6350262498382L725.3616,194.0445991727545L725.9200000000001,107.20034798021518L726.7575999999999,192.85776603910566L728.4328,191.93545610173493L728.712,224.31081777725183L729.8288000000001,143.84337013412454L730.1080000000001,166.88747560830677L731.2248000000001,97.6339985729919L731.504,140.0998689924279L732.6208,87.61892151752708L733.4584,168.17404731969592L735.9712,103.89371071603631L736.8088,33.21801710344991L739.6008,96.09717695518519L742.3928000000001,171.77161967408767L745.1848000000001,166.02648965570992L747.1392,152.38950992501773L750.2103999999999,162.93961919353603L752.1647999999999,201.63696719483252L754.1192,230.94924633252455L754.6776,147.94484757978813L756.3527999999999,213.44999629201348L756.9112,203.40878810113585L757.7488,102.54996900325965L758.028,94.42928661435813L759.7032,102.60011163536288L760.82,121.61888852300393L763.8912,58.98193702005237L764.7288,106.53052485851578L766.1247999999999,192.4647776836642L769.7544,141.2166798914485L772.5464,212.12536564971285L776.4552,126.39343472185895L781.7600000000001,158.35185276426773L783.1560000000001,220.97945477379503L783.4352,153.0557037968942L784.8312000000001,178.78780953399587L786.2272,250.40049387469443L787.0648,184.10898788975808L788.4608,117.79691775826888L790.6944,195.3278450153129L791.5319999999999,184.42503483511547L793.4864,233.41807444110833L793.7656,260.5749726431806L794.0448,185.41935976999042L794.6032,115.13119615984576L796.2784,198.1016025836028L798.2328,241.33538864977106L802.1416,256.6791325795111L805.2128,131.89437803403476L806.6088,81.42475421299899L807.1672000000001,107.17663538226104L807.7256,53.076783402208214L808.0047999999999,26.014248019840565L808.8424,143.56469573573247L809.1216000000001,85.11535198733792L817.4976,164.23993333595746L818.3352000000001,93.49610961094947L819.452,126.03331015743883L819.7312000000001,62.71930106028358L821.1271999999999,25.715855074646736L821.4064000000001,161.82689199986618L824.7568,225.88504491671657L826.9904,147.46715214534242L827.5488,212.10225661923673L827.828,260.244388712753L828.9448,180.81966268321818L831.1784,219.99267060797777L833.4119999999999,127.85898483548978L834.5288,131.9533206315185L835.6456000000001,66.41808227148921L837.0416,166.78547343515913L837.6,176.88270553936698L838.4376,95.37206724451862L838.996,182.96872865237526L839.2751999999999,240.75233555568295L839.8336,226.57281264932777L841.2296,140.13346136889353L842.3464,147.2377992670148L842.6256000000001,93.6187419137245L842.9048,100.22778883719955L843.4631999999999,139.85101088776895L844.0216,194.7308119037551L845.4176,209.89686149528043L845.976,116.55091233173852L848.2096,134.03169148015886L855.7479999999999,75.22068432168905L856.0272,50.30465676000562L856.5856,143.49735645834713L859.0984,173.10034182910985L859.3776,235.7949035349659L861.0528,282.86954016785455L861.332,177.485139042119L862.1696000000001,122.90437683347447L862.4488,143.89445308372729L863.2864,201.26135644496296L865.2408,164.54438554666527L865.7991999999999,185.36924471911243L867.1952,123.7045769340065L870.5456,63.623662151614866L870.8248,157.44636638276577L873.0583999999999,76.66163887262822L873.3376000000001,108.69665834570218L875.0128000000001,56.09173133554629L875.292,152.0051499829684L876.1296000000001,216.44634401810134L876.4088,118.39075833957175L876.688,57.213405492024286L877.5256,169.15015047294898L882.8303999999999,105.46709140681622L885.064,65.98983470248821L885.3432,152.56124493770383L885.6224,168.56520697849143L886.1808000000001,105.70539371834488L888.1351999999999,150.90054809624127L888.9728,120.26811855501043L889.5312,87.132015175975L890.3688000000001,108.58480195836817L891.4856,187.6773248029506L893.9984,247.29386263079377L895.1152,256.48716918980443L895.6736,215.88004039098837L896.7904,251.58500404416336L897.0695999999999,158.21715264622455L898.1863999999999,102.68077737875036L898.4655999999999,128.9840600216106L898.7448,191.2868378684351L900.1408,114.88922642711573L901.5368000000001,142.83884700739247L901.816,198.23915461556834L902.9328,118.27155993242691L904.3288000000001,84.74586247312801L904.6080000000001,195.37044648778306L904.8872,115.06050656454485L905.7248000000001,143.3224678547425L906.004,80.90240856929084L908.2375999999999,52.244207080051076L908.5168000000001,52.45044143553065L908.796,144.90203864061527L910.192,90.3841793367129L910.4712,43.05789903269179L911.5880000000001,22.8386556793807L912.4255999999999,87.08743026675924L913.2632,173.4113603573212L913.8216,183.0010690281134L914.38,217.21731485436808L915.2176,264.0061990932849L917.172,290.64379408976004L920.5224,167.4454360241685L921.0808000000001,171.04085252636634L924.7103999999999,177.10421586152293L924.9896,101.49907429230437L928.0608,54.40059005878104L930.8527999999999,117.72540393761237L931.4112,52.51592864186433L931.9696,33.39004719976705L932.8072,149.20107185013364L933.6447999999999,80.50211312961143L934.4824,121.98639356746413L935.5992,170.06192890170894L935.8783999999999,225.01413248750976L937.2744,194.07775106004124L937.8327999999999,186.00655774356872L938.3912,170.55531855956286L938.6704,161.94841130556802L939.7872,92.6325346007236L943.4168,63.04128321160607L943.9752000000001,133.5504160085066L944.2544,70.43149958068987L944.8127999999999,119.48001541003502L946.2088,73.51692108684131L946.7672,124.62034127515169L947.3256,222.16617112251285L947.884,209.08475748307805L950.1175999999999,193.26366458506163L952.3512000000001,199.835390535705L953.1887999999999,231.80733144056362L953.4680000000001,211.0548179012034L954.3056,122.26720299658142L954.864,113.78400032578088L955.1432000000001,183.659588281406L955.9807999999999,184.25770548349206L957.6560000000001,238.0518084463452L958.7728,231.25708141790477L959.052,256.97728337222725L962.9608,233.26839855727192L963.7984,207.01307001204873L964.636,123.61620648476828L965.4736,100.04398769701328L966.5904,43.62800326273921L967.4279999999999,140.42062512658885L967.9864,79.8459803493908L969.6616,29.40765359049387L971.0576,134.3704061435541L971.3367999999999,216.49642471640593L972.7328,206.7337214924412L973.2912,109.74002500972256L975.2456,76.3896705234117L976.0832,53.53218852010165L976.6416,91.1693537507939L976.9208,188.72634799266388L977.7584,98.46271331219988L978.3168,63.37974971583552L979.992,30.705562549227892L982.5047999999999,140.09493452660706L983.9008,87.18869440737049L985.2968,165.16551347059416L986.6928,85.51382566048149L990.3224,171.29289666582017L990.6016,216.72327506003901L990.8808,124.78832448426554L993.6727999999999,180.45647887024685L995.6271999999999,92.79852025671842L996.4648,54.96179809153103L997.8608,39.084731979918615L1000.3736,145.01231692232616L1000.6528,202.82748993366914L1002.328,251.96837538109992L1004.0031999999999,148.76955411049593L1004.8408,79.85756127489131L1005.9576000000001,172.31756674540355L1006.2368,112.83007491052335L1006.516,194.27832631838433L1007.0744000000001,184.61709236390658L1008.1912,235.06898471521896L1009.0288,273.20749429592826L1009.308,153.32443896036946L1010.4248,241.2313981906748L1010.704,147.1633314681158L1010.9831999999999,117.97813713770543L1012.3792,189.52474339102167L1012.9376,173.99557098368678L1015.7296,196.7823513792746L1017.684,112.28822105705696L1019.0799999999999,209.81787677485912L1019.6384,127.23873072800146L1020.476,84.68878352957427L1023.8264,56.83286474665083L1024.664,120.09843332552954L1025.5016,111.56576552510292L1026.8976,36.071846424436735L1029.4104,141.09215067692764L1030.248,90.70653422939881L1030.8064,49.682484551311106L1032.7608,104.92643215534724L1033.8776,206.7406270178177L1034.1568,258.16714186010466L1036.3904,148.56799607797686L1037.5072,90.11235270049707L1037.7864,176.6204933585795L1038.624,162.6581631202502L1039.1824,210.63792965925953L1041.1368,203.3175737562491L1042.2536,253.2981050691791L1043.3704,229.45352986279653L1044.4872,135.8242645485373L1045.0456000000001,124.96900572008916L1046.7208,75.73872310978787L1050.6296,100.88200897268428L1051.188,104.54643098175505L1052.0256000000002,129.97401648395052L1052.8632,150.72275793724532L1053.7008,117.90163707435893L1053.98,191.39207152684193L1055.376,227.77278815536297L1057.6096,263.7907622731006L1059.2848000000001,178.51891827694632L1060.1224,222.25919491148028L1060.4016000000001,140.7931191441538L1062.6352,90.78574907438288L1064.8688,186.77946902470788L1068.4984,103.66236322634815L1070.4528,184.42952728639486L1072.128,169.64900669394993L1073.5240000000001,154.6713490786258L1075.7576,209.74089313858175L1076.5952,198.42339210873496L1078.8288,125.04133470371752L1079.108,197.2548522138321L1079.3872,118.583162793143L1080.5040000000001,71.13798827647173L1080.7832,38.57188608111742L1081.0624,6.335637581287637L1081.6208000000001,133.9043406054132L1082.4584,201.26052694625577L1083.0168,139.5955786921675L1084.4128,71.07605629733175L1084.692,49.43998075105529L1085.5295999999998,30.614931614695656L1086.9256,85.39583579682034L1087.2048,163.79087284039693L1088.0424,105.1422143048241L1089.4384,47.02708847058976L1089.9968000000001,48.86210828254915L1090.8344,14.673700931443557L1091.1136,134.8445276389443L1091.3928,196.51278862926503L1092.2304,234.28840066779338L1093.9056,211.91485332792212L1095.0224,120.48588680144078L1096.1392,188.51108815996602L1098.0936,198.2058431913898L1098.3728,106.56361189627917L1098.9312,54.26979277253316L1099.7687999999998,93.99976804404353L1103.9568,66.92191441529333L1104.236,146.11164740405883L1105.3528,180.46823558598996L1105.9112,230.47340499905494L1107.8655999999999,225.90628178117126L1108.424,125.16351623667147L1108.9824,79.72367710040128L1109.8200000000002,81.94432502244781L1111.2160000000001,133.39503563846873L1111.4952,143.1533496103151L1111.7744,153.81306919612072L1112.0536,212.90161991122707L1112.3328,132.34208835298625L1112.612,61.56249021882303L1113.7287999999999,66.52363534223129L1114.2872,155.31798726002629L1114.8455999999999,79.1849049048439L1115.6832,185.89222097025012L1116.5208,136.249348182736L1116.8,80.45179352878225L1117.6376,37.143964129964644L1120.7087999999999,152.81739200336943L1122.1047999999998,77.72407809752944L1122.384,163.14981377746298L1124.0592000000001,81.42114993639967L1126.5720000000001,115.90553525602927L1126.8512,145.02061650273865L1128.2472,69.35488801687755L1129.0847999999999,36.663024655829666L1130.76,15.196569505411848L1131.8768,117.88495000402834L1132.9936,67.78155947995612L1133.5520000000001,101.76195533938663L1135.2272,50.59974690968661L1136.0647999999999,160.60025571417137L1137.1816,159.88695651382997L1137.74,97.5779919991183L1138.0192,88.66146272876782L1139.136,41.14592202202637L1140.2528,13.982341274739213L1141.0904,39.256726957226384L1141.3696,83.28006140092879L1142.2072,109.6861193433039L1144.72,60.43716867629485L1146.9536,52.63761004366752L1148.3496,26.749887705887993L1148.6288,2.7685990053687206L1148.908,80.76594776381695L1149.1872,49.59089238875894L1150.0248,46.5816170250522L1151.1416,28.485843725773538L1153.096,88.20319458995631L1159.7968,29.8582412168644L1160.6344000000001,14.071097244767069L1161.1928,31.795527878110263L1161.7512000000002,36.90242536944424L1162.5888,41.55863969432278L1163.1472,33.187008718937456L1163.7056,13.491848468667127L1164.264,8.95986252358308L1164.5432,8.123804940907688L1164.8224,138.96832485907586L1169.848,153.6359574825842L1172.3608,96.7236514670896L1172.6399999999999,133.27764256482405L1174.5944,208.898827946121L1175.7112,252.82319286142263L1175.9904000000001,166.30112401763483L1177.3864,233.61281103167465L1177.6656,139.1080915262313L1178.5031999999999,201.49288628780917L1180.7368,119.1599679543261L1181.5744,78.51596495228317L1181.8536,114.44848979290306L1184.3664,101.97978324341764L1185.204,153.81413520483963L1185.4832,86.05859169419287L1186.0416,40.018982457921965L1186.3208,137.01358508022193L1187.1584,100.01943537430503L1187.4376,57.58087482321582L1187.7168,148.2528305824061L1189.6712,117.13101464583035L1190.2296000000001,180.52707993007633L1190.788,224.27327583890516L1194.1384,251.7522388676009L1194.9759999999999,222.05884288721091L1195.2552,160.81357111318596L1195.5344,75.90334794134908L1195.8136,42.16628696305164L1196.9304,55.87223406747943L1197.768,31.960339048886087L1201.956,142.31386548987857L1202.2351999999998,105.98685066599742L1202.5144,88.21514667889535L1204.1896000000002,164.70101173780597L1204.748,82.76363123701948L1205.8648,174.6196215888914L1206.9816,93.61316404220204L1207.2608,195.7153747436806L1208.6568,166.23718054689192L1211.4488000000001,177.52626538990276L1213.9616,106.50313462456666L1214.52,91.52201362386106L1214.7992,70.08326825732448L1215.0783999999999,42.94191544658219L1215.916,12.186952759160235L1216.4743999999998,60.744698034890675L1217.312,106.74670926282896L1219.8248,141.66032761458212L1220.6624,78.88344930312428L1221.5,181.1453872332418L1224.292,192.6121078648474L1227.6424,194.431917874426L1229.0384,111.4474434248509L1230.7136,184.1751735744418L1230.9928,238.42563822669632L1231.5511999999999,265.69260566551L1232.6680000000001,219.9334354069621L1234.3432,207.87838620145263L1235.1808,227.22563538298095L1235.7392,172.38735040703466L1236.2976,100.2306321192208L1237.1352,135.29686285917896L1237.6936,85.36606424871052L1237.9728,65.72047436465601L1238.5312,99.35522830833064L1239.3688,119.19870989950336L1243.2776,151.22229204687977L1243.5568,101.64561968613565L1244.3944,187.28456846695482L1246.628,141.82215749862993L1246.9072,95.57460419156078L1249.42,67.41171647001461L1249.6992,115.07421052165719L1251.0952,86.01698471143179L1251.3744,56.06450923506221L1251.6535999999999,51.019751854513856L1252.4912,122.61616978946616L1252.7703999999999,211.9942708678203L1254.1664,198.2603064293836L1255.5624,244.6360020461067L1256.4,146.36112698449995L1258.6336,197.279223871364L1259.7504,184.56812446869245L1260.3088,106.8280348130514L1262.8216,50.43026134193239L1264.2176,12.836601922346953L1265.8928,-18.202399149326205L1266.172,92.65749112563864L1267.2888,40.52569448007069L1267.568,19.99478717144085L1269.5224,1.3990203009113664L1271.4768000000001,0.3236581278124391L1273.152,66.88591854917281L1273.9895999999999,43.71537595860525L1274.548,6.2672356825850235L1274.8272,5.71237549158223L1276.7816,121.03279065139469L1278.4568,47.34587087521182L1279.0152,44.270639517314585L1279.2944,27.412593012146562L1279.8528,122.6769114957645L1280.9696,79.56940143847437L1282.0864,40.51228934941274L1283.4824,20.239407008085134L1284.3200000000002,133.9894709626636L1286.8328,79.06694964302781L1287.3912,70.7148899396253L1288.508,28.63721267471266L1289.0664,44.00686781478856L1290.1832,149.796120640045L1291.0208,96.63199067015982L1292.6960000000001,55.0852564870568L1293.5336,30.787712778952827L1296.0464,154.96523921522325L1297.1632,102.74438500862612L1299.1176,55.84263757255849L1299.9552,144.23271833455075L1301.9096,78.53092211401167L1302.1888,68.99661602475467L1303.0264,48.5400285992278L1303.5847999999999,96.95916718395075L1305.8184,121.57196993469907L1306.0976,209.81857387976478L1306.9352000000001,163.20569902756588L1308.6104,221.6188437329458L1310.0064,147.75682330519714L1314.1944,107.59189398311828L1314.4736,177.92358870920694L1316.7072,112.54381938763355L1318.1032,131.05891848804887L1319.7784,209.52350817290744L1320.3368,136.82868456683042L1320.616,198.6252991678326L1322.2912000000001,110.34989925167613L1325.0832,182.92347500022444L1325.9207999999999,251.8396799708378L1326.4792,158.25095649324484L1326.7584,89.56877582465783L1327.0376,79.5018201456736L1328.1544000000001,85.06547154297056L1330.9464,50.61906246679799L1331.2256,152.50978972617256L1331.7839999999999,187.61603524927776L1334.576,188.75734493496705L1334.8552,221.5373196318787L1335.6928,261.02811448420533L1337.9264,271.8460343155232L1339.6016,157.36214517427487L1340.7184,153.82741440139412" style="fill: none;" fill="none"></path></g></g></g></g><g opacity="0.2"><g><g><g><path stroke="rgb(255, 112, 67)" stroke-width="2px" d="M140.7168,255.34865533447265L143.5088,235.002869934082L143.78799999999998,229.79404193115235L144.6256,147.11552098846434L144.9048,256.9258778686524L145.7424,263.384962097168L146.85920000000002,330.5520598754883L147.1384,333.8964047241211L150.768,255.2918884277344L152.7224,319.8263790893555L153.0016,213.44267532348633L153.2808,215.28753634643553L154.6768,348.30238293457035L156.9104,185.35071038818361L157.1896,239.50613754272462L158.0272,218.98961883544922L158.3064,245.73826950073243L159.144,217.62673434448243L159.4232,235.47050765991207L161.0984,372.41049572753906L162.4944,214.25281787109375L164.4488,389.55264807128907L167.2408,286.1102164306641L168.3576,220.16498565673828L169.1952,251.1205762939453L169.4744,228.4477687683105L173.38320000000002,224.34151766967773L174.5,229.60178887939455L174.7792,220.40632864379884L175.33759999999998,442.06677795410155L175.89600000000002,263.0956712036133L177.5712,214.15594729614259L179.8048,428.3061844482422L180.3632,199.02764163208008L180.64239999999998,239.24801596069332L181.48000000000002,224.73194732666016L183.43439999999998,323.0601547851562L184.27200000000002,616.2792121582031L184.8304,246.54627218627928L185.3888,226.41105267333984L187.34320000000002,303.22534075927734L187.6224,288.7843864746094L189.01839999999999,246.0152287902832L190.9728,214.7202191162109L191.252,185.02217234802248L191.53119999999998,353.8965476074219L192.9272,443.6550285644531L195.16080000000002,425.05149462890626L195.9984,325.5812583618164L196.2776,465.212794921875L196.83599999999998,340.15646447753903L198.5112,426.39823498535156L199.0696,323.7079158325195L199.628,370.90795495605465L201.02399999999997,379.73992126464844L201.3032,175.97288314819338L202.1408,523.0496096191406L203.53680000000003,157.58695544815063L207.7248,244.04964724731445L208.004,360.0654873046875L211.63360000000003,190.18418582153322L211.91279999999998,361.21379150390624L212.192,450.1764975585938L217.21759999999998,520.8972659912109L218.33440000000002,162.77196306610108L219.172,423.17759838867187L220.00959999999998,450.2678829345703L220.568,278.76435260009765L221.964,186.33289842224121L222.52239999999998,421.90037182617186L222.80159999999998,282.1995406494141L225.59359999999998,484.3521595458985L226.7104,177.10585935974123L227.8272,302.13360736083985L228.38559999999998,354.0998056640625L228.6648,368.9940300292969L229.5024,339.0740518798828L233.69039999999998,296.18092639160153L233.96959999999999,216.8802339477539L235.924,346.96145654296873L236.20319999999998,389.55571655273434L237.8784,544.6637160644532L238.4368,307.13315570068363L239.55360000000002,411.778951171875L241.2288,262.14245782470704L241.50799999999998,467.7684477539063L241.78719999999998,282.6996685180664L242.0664,265.8434848022461L245.13760000000002,175.22078796386717L247.3712,510.46539807128903L248.488,197.81936073303223L249.0464,314.1594244995117L250.4424,460.8017720947266L252.39679999999998,383.8783337402344L255.468,306.0111989135742L257.1432,552.2578154296875L257.42240000000004,536.1553937988282L258.5392,241.78987792968746L261.3312,320.3507894897461L261.6104,467.3184653320313L262.1688,259.2388899536133L263.2856,333.219008605957L263.5648,212.8649067993164L264.1232,401.6929910888672L265.24,577.9246706542968L265.7984,366.15360827636715L266.9152,342.9986165771484L268.3112,263.86145343017574L269.428,356.45372314453124L270.2656,532.3188229980468L270.824,258.28478833007813L271.9408,269.18508416748045L272.22,211.93023696899414L273.616,348.3657136230469L273.89520000000005,212.64985931396484L275.5704,216.44786645507813L276.1288,235.22644802856445L277.5248,221.40660168457032L281.992,144.98737337493898L282.27119999999996,370.86591906738283L282.55039999999997,393.74430908203124L282.8296,533.9808555908203L283.10880000000003,249.45820916748048L283.9464,330.44904656982425L284.2256,308.46794512939454L284.5048,312.78276068115235L288.41360000000003,364.22501000976564L288.69280000000003,431.37572717285155L289.2512,238.03526788330078L289.5304,249.70192272949222L289.8096,256.36382666015623L290.368,343.41384210205075L291.4848,332.45140374755863L292.0432,397.99943920898437L293.15999999999997,459.14573803710937L293.71840000000003,270.23202465820316L294.8352,314.3963781738281L296.5104,172.30783296203612L297.0688,302.95170373535154L298.1856,181.9651804046631L299.58160000000004,353.5895379638672L302.6528,346.4594022216797L302.932,404.6975189208984L303.76959999999997,197.7510495300293L304.328,309.4223812866211L304.60720000000003,353.8658397216797L305.4448,367.6967775878906L306.0032,439.75215087890626L307.9576,420.98091174316403L309.3536,238.53172164916992L310.7496,376.26889196777347L311.0288,366.3433004150391L313.26239999999996,253.35589581298828L313.5416,222.81352349853512L314.3792,377.3512814941406L314.9376,244.00901293945313L315.2168,363.44543115234376L316.3336,332.6786444091797L317.4504,370.59377014160157L319.1256,355.5106380615234L319.4048,269.1006086425781L320.8008,382.31036279296876L321.3592,344.5764851074219L322.476,208.99640533447266L323.3136,344.4283905029297L323.872,244.691421295166L325.8264,194.6631016845703L326.66400000000004,147.73960836982727L328.06,191.69275108337402L328.3392,382.2220228271484L329.45599999999996,216.06169345092772L330.57280000000003,363.1125124511719L332.8064,329.7419577026367L333.3648,357.18646728515625L334.2024,334.78814465332033L337.832,335.33821032714843L339.228,138.5872377319336L340.9032,337.76926666259766L341.46160000000003,354.3745155029297L342.02,326.9466172485351L342.2992,289.1771174926758L342.8576,309.41971655273437L343.1368,216.5415416564941L343.6952,323.4191901855469L343.9744,302.150830078125L344.2536,196.20584706115724L345.64959999999996,241.60543450927736L347.3248,303.6740542602539L352.90880000000004,209.27601782226563L353.188,258.70365911865235L355.1424,299.1576071777344L355.98,171.56915517425537L356.25919999999996,372.94568041992187L356.81759999999997,264.89562396240234L357.37600000000003,331.74105029296874L357.93440000000004,340.1425524902344L359.6096,308.0940633544922L364.0768,165.98005753326416L364.356,194.2601212463379L364.91440000000006,363.6755903320312L365.752,267.089657409668L367.9856,344.9929449462891L368.2648,177.72382095336914L370.7776,326.2125811157227L371.8944,168.16457984161377L372.1736,372.5862528076172L372.732,155.47208283805847L373.0112,329.453751159668L374.12800000000004,213.09266079711912L374.9656,104.87171530151367L375.524,324.14036407470707L377.1992,200.45004428100586L378.8744,352.977456665039L379.71200000000005,276.10627478027345L380.27039999999994,191.7166298675537L381.3872,271.75606787109376L382.504,126.13253974914551L382.7832,179.2078585510254L386.4128,295.9525090942383L386.9712,317.11757904052735L388.64639999999997,203.0831070556641L389.48400000000004,173.22476818084715L390.0424,199.25068908691406L391.1592,138.93232509613037L391.4384,158.83940200424195L393.1136,289.80815185546874L393.67199999999997,220.96546710205078L395.90560000000005,85.80437924194338L398.6976,294.92765936279295L399.256,323.1271653442383L399.8144,281.21851483154296L402.6064,211.19693334960934L404.56080000000003,308.6869493408203L405.3984,15.57992614746094L406.236,306.7214254760742L408.4696,263.57448120117186L412.9368,312.01985083007816L413.7744,280.18989294433595L414.8912,192.42399559020996L416.5664,216.1962682800293L417.1248,97.894986328125L418.5208,239.00267587280274L419.3584,298.50425134277344L419.63759999999996,-17.909837951660183L419.9168,286.41557647705076L420.47520000000003,345.7499139404297L422.4296,183.30888400268555L422.988,300.6688458251953L424.9424,335.2088842163086L426.05920000000003,179.43755918884276L426.6176,294.7345411376953L428.85119999999995,215.34374954223637L429.1304,347.54659057617187L431.6432,66.50145071411133L434.43519999999995,311.33436822509765L435.552,229.25901873779299L436.1104,306.49357342529294L438.344,298.0408760375976L438.6232,62.47735647583008L439.1816,293.58206103515624L440.2984,285.94576428222655L442.8112,184.05636492919922L446.1616,315.9702092285156L447.27840000000003,345.42527783203127L447.8368,88.52395358276365L448.67440000000005,72.33611627197266L449.23279999999994,345.89401721191405L449.7912,46.56000695800783L452.5832,315.0278047485352L452.86240000000004,35.99528302001952L453.7,287.5068599853515L453.9792,268.61202795410156L454.81679999999994,207.7642196960449L455.6544,300.26041479492187L456.21279999999996,187.36460609436037L457.6088,102.67971789550779L459.5632,88.92847979736328L460.9592,95.07589974975586L461.2384,206.12480273437504L464.0304,176.30899433898924L464.5888,269.40285406494144L467.38079999999997,308.72093334960937L467.93919999999997,318.5020524902344L468.2184,282.30120428466796L469.6144,329.6453928222656L470.1728,86.21459829711914L471.5688,297.49583990478516L472.6856,306.2390625L472.96479999999997,197.47742692565922L476.3152,316.83682452392577L478.54879999999997,347.1161033935547L479.66560000000004,289.28603704833984L481.0616,85.85767968749998L481.61999999999995,273.66623217773434L482.7368,177.34557293701172L486.9248,145.55533443832397L487.4832,79.83942434692385L488.59999999999997,334.22492834472655L488.8792,197.43391735839847L489.1584,153.47842623996735L489.7168,255.3573186035156L490.5544,0.23340069580078326L491.392,338.07285021972655L491.6712,185.8827573852539L493.3464,291.0744656982422L494.46320000000003,333.8224612426758L495.85920000000004,62.350522064208995L496.41760000000005,55.33956106567385L497.5344,83.39042449951174L498.37199999999996,341.82192315673825L499.768,78.66149084472654L500.6056,309.3585891723633L502.00159999999994,198.2320484161377L502.2808,90.80162622070313L503.1184,208.15981732177738L504.2352,320.3349279785156L506.748,231.1439545898438L508.7024,198.65492784118652L509.53999999999996,305.9929033813477L509.8192,84.06066275024412L512.332,303.40399328613285L515.124,68.15317620849609L515.9616,328.14427093505856L517.6368,308.5183789672852L519.312,65.51205001831055L520.4288,0.42026660156250806L523.5,215.94289361572265L523.7792,275.2354605102539L524.896,325.2019432983398L526.5712,1.497834228515636L527.688,178.00040245056152L528.5255999999999,-20.29324053955082L535.2264,331.59956561279296L536.3432,107.29600309753418L539.1351999999999,99.74266204833982L540.5312,175.734605758667L541.0896,91.28345278930662L541.3688,33.38605865478517L541.648,191.3374359283447L541.9272,87.70345202636719L544.1608,337.9399019165039L546.3944,310.37356439208986L546.6736,295.1013977050781L547.232,128.06814015197756L547.5112,29.142037353515608L550.8616,176.01037399291994L551.1408,332.78620275878905L551.6992,280.3526954956055L554.7704,328.8258775634766L555.6080000000001,326.7464507446289L556.7248,64.13128527832029L557.8416,299.11377172851564L558.9584,-10.565623718261719L560.9128,204.95968533325197L561.192,310.85703479003905L561.4712,200.59020236206055L562.0296000000001,72.57478298950195L562.8672,330.93605841064453L566.2176000000001,7.0897263793945395L567.8928,-8.900776428222656L568.7304,188.5047891998291L569.0096,326.93188623046876L571.8016,-15.326153503417974L572.6392,286.2870001831055L572.9184,-3.7469503784179956L576.548,-53.70144763183597L576.8272000000001,196.7162964477539L577.3856000000001,312.7017112426758L578.5024,22.706232055664056L578.7816,285.45484185791014L579.6192,154.8351076183319L580.736,281.53695629882816L582.132,163.48624008178712L585.2032,122.99569230651854L586.5992,-11.04446832275393L587.1576,334.2395209350586L589.3912,305.76823516845707L593.8584,271.10734936523437L596.092,-29.073019592285178L596.6504,207.90277432250977L597.4879999999999,14.001180908203125L599.1632000000001,75.43726089477539L599.4424,35.381159912109396L601.3968,24.881658508300802L603.6304,11.93357812499999L604.7471999999999,197.21512655639648L605.864,291.65100567626956L606.9808,-23.334474792480496L607.8184,294.4072979736328L608.3768,291.9953562011719L610.052,175.28562261199951L610.6104,284.73251440429686L610.8896,285.00729345703127L612.5648,183.069300201416L612.844,-2.339417175292958L614.7984,-19.97511053466799L615.3568,125.00883242797852L616.1944,190.84408525085448L616.7528000000001,199.3023831939697L617.032,203.71335122680668L617.3112,-40.01475146484376L619.2656,44.99775769042971L620.3824000000001,-47.886167724609386L620.6616,278.20085943603516L621.22,10.907817077636727L622.616,9.555505004882829L624.8496,-2.0887245483398753L625.1288,295.183842956543L626.2456,269.832026184082L626.804,-23.731300964355427L629.0376,283.6127955322265L629.3168,-2.472423156738257L632.388,12.658616455078146L635.1800000000001,189.71596266174316L635.7384000000001,-52.80662768554691L637.6928,292.85634210205075L637.972,276.4597153930664L638.2512,164.4317216949463L639.0888,-24.815824584960975L639.9264,-10.993250061035154L641.0432,157.66842016983034L642.1600000000001,192.1991572265625L647.4648,297.35046771240235L648.5816,346.6404195556641L649.6984,204.2437947692871L650.5360000000001,290.3537647705078L651.0944,239.9736714477539L652.2112,302.5985630493164L652.7696,296.19314263916016L655.2823999999999,110.25688293457031L656.3992000000001,-31.486103393554682L658.9119999999999,-1.0253572998046714L660.308,4.929134765624982L660.5872,30.519081848144552L660.8664,296.725766418457L664.496,283.93608197021484L665.3336,157.04344274139405L666.7296,195.21420556640624L668.684,316.7079483032226L669.8008,292.85946826171875L670.6384,202.03534176635742L672.3136,116.05095167541504L672.5928,24.605287536621088L672.872,209.2587604980469L673.7095999999999,1.3568686523437476L675.1056,-42.490416137695334L676.7808,5.487148498535175L677.06,75.57560787963865L679.852,4.0493226928710735L680.1312,284.52767596435547L681.2479999999999,315.47605682373046L681.5272,161.41895164489748L682.644,177.94317700195313L683.2024,334.4725409545899L684.8776,70.67716946411133L685.7152,-13.512450256347632L686.832,-20.735113403320355L687.1112,311.19602124023436L687.6696,179.09643287658693L687.9488,-20.144338439941407L688.5072,324.9826737670898L691.5784,306.0281447753906L692.1368,299.7616827392578L694.3704,201.93484323120117L694.6496,324.56522186279295L695.4871999999999,211.74074670410153L705.2592,136.9816346282959L707.772,-57.66156518554684L708.0512,1.8314796752929667L710.0056000000001,33.67383837890626L711.1224,2.851196044921883L713.0768,167.68230626678465L713.356,-19.61481774902346L716.7063999999999,293.0986944580078L717.544,-30.517559143066368L720.0568000000001,265.87610760498046L722.2904,37.27170208740235L722.8488000000001,9.2515869140625L725.0824,168.7780511856079L725.3616,323.65895855712887L725.9200000000001,-23.06602880859377L726.7575999999999,321.3438931274414L728.4328,190.5519911956787L728.712,272.8738602905274L729.8288000000001,23.142198669433604L730.1080000000001,201.45363381958006L731.2248000000001,-6.246216979980442L731.504,203.798674621582L732.6208,8.897500305175784L733.4584,289.0067360229492L735.9712,7.473205810546867L736.8088,-72.79552331542965L739.6008,190.41591673278805L742.3928000000001,285.2832837524414L745.1848000000001,157.4087946281433L747.1392,131.93404032897948L750.2103999999999,178.7647830963135L752.1647999999999,259.6829891967773L754.1192,274.9176650390625L754.6776,23.43824945068361L756.3527999999999,311.7077193603516L756.9112,188.34697581481933L757.7488,-48.73825964355472L758.028,82.24826303100586L759.7032,114.85634916687012L760.82,150.14705385446547L763.8912,-34.97349023437498L764.7288,177.85340661621092L766.1247999999999,321.36615692138673L769.7544,64.34453320312498L772.5464,318.4883942871094L776.4552,-2.204461669921858L781.7600000000001,206.28947982788085L783.1560000000001,314.9208577880859L783.4352,51.17007733154297L784.8312000000001,217.38596813964844L786.2272,357.8195203857422L787.0648,84.67172891235352L788.4608,18.32881256103514L790.6944,311.62423590087894L791.5319999999999,168.07081956481932L793.4864,306.9076338500976L793.7656,301.3103199462891L794.0448,72.68594046020507L794.6032,9.698950744628895L796.2784,322.5572122192383L798.2328,306.18606774902344L802.1416,279.6947484741211L805.2128,-55.282753784179654L806.6088,5.720318481445329L807.1672000000001,145.80445713615416L807.7256,-28.07299456787109L808.0047999999999,-14.579555053710967L808.8424,319.8903673095703L809.1216000000001,-2.5586636352539096L817.4976,282.9268053588867L818.3352000000001,-12.619625976562508L819.452,174.83911097717285L819.7312000000001,-32.2517125854492L821.1271999999999,-29.789313903808583L821.4064000000001,365.9934473876953L824.7568,321.9722742919922L826.9904,29.840312988281266L827.5488,309.05491333007814L827.828,332.45758685302735L828.9448,61.682573638916004L831.1784,278.75218249511715L833.4119999999999,-10.341543823242155L834.5288,138.09482432556152L835.6456000000001,-31.884775268554655L837.0416,317.3365601806641L837.6,192.0285536956787L838.4376,-26.8938901977539L838.996,314.3637207641601L839.2751999999999,327.42774591064455L839.8336,205.30352828979488L841.2296,10.474434448242201L842.3464,157.89430611419678L842.6256000000001,13.190155883789057L842.9048,110.1413592224121L843.4631999999999,199.28584396362305L844.0216,277.05051342773436L845.4176,232.64593588256835L845.976,-23.468011413574256L848.2096,160.25286020278932L855.7479999999999,-12.995826416015646L856.0272,12.930615417480466L856.5856,283.28640600585936L859.0984,217.5048198852539L859.3776,329.83674609375004L861.0528,353.48149511718754L861.332,19.40853735351563L862.1696000000001,41.03323352050779L862.4488,175.37956745910643L863.2864,287.3117114868164L865.2408,109.46892919921875L865.7991999999999,216.6065334777832L867.1952,31.207575256347646L870.5456,-26.497710021972683L870.8248,298.1804227294922L873.0583999999999,-44.515452392578084L873.3376000000001,156.7491875553131L875.0128000000001,-22.815659179687458L875.292,295.8752779541016L876.1296000000001,313.1081350708008L876.4088,-28.69262017822265L876.688,-34.55262377929689L877.5256,337.0552679443359L882.8303999999999,9.94250280761719L885.064,6.773949645996105L885.3432,282.41836029052735L885.6224,192.57115003967286L886.1808000000001,11.415673828124984L888.1351999999999,218.69327966308597L888.9728,74.31947424316408L889.5312,37.427860107421886L890.3688000000001,140.763982131958L891.4856,306.3161090698242L893.9984,336.7186693725586L895.1152,270.2771290283203L895.6736,154.9693471927643L896.7904,305.1424495239258L897.0695999999999,18.165375549316412L898.1863999999999,19.376214477539072L898.4655999999999,168.43898398590088L898.7448,284.7410046386719L900.1408,0.29280926513673755L901.5368000000001,184.7632778778076L901.816,281.339616027832L902.9328,-1.6798320922851468L904.3288000000001,34.457316284179676L904.6080000000001,361.30732250976564L904.8872,-5.404403320312491L905.7248000000001,185.71540979003905L906.004,-12.727680358886708L908.2375999999999,9.256904846191398L908.5168000000001,52.75979296875002L908.796,283.5794344482422L910.192,8.607390380859364L910.4712,-27.931521423339806L911.5880000000001,-7.490209350585911L912.4255999999999,183.46059214782713L913.2632,302.8972554931641L913.8216,197.38563203430172L914.38,268.54168359375L915.2176,334.1895254516602L917.172,330.6001865844726L920.5224,-17.352101074218755L921.0808000000001,176.43397727966308L924.7103999999999,186.1992608642578L924.9896,-11.908638061523467L928.0608,-16.247136291503864L930.8527999999999,212.71262475585934L931.4112,-45.29828430175779L931.9696,4.701225036621102L932.8072,322.9176088256836L933.6447999999999,-22.546324951171854L934.4824,184.21281422424315L935.5992,242.17523190307617L935.8783999999999,307.4424378662109L937.2744,147.67317891883852L937.8327999999999,173.89976776885985L938.3912,147.3784597835541L938.6704,149.0380504245758L939.7872,-11.341280456542947L943.4168,18.654406127929693L943.9752000000001,239.31411520385743L944.2544,-24.24687506103515L944.8127999999999,193.05278915405273L946.2088,4.5722796020507905L946.7672,201.27547155761718L947.3256,368.48491589355467L947.884,189.46263702392577L950.1175999999999,169.5320252380371L952.3512000000001,209.69297946166992L953.1887999999999,279.76524279785156L953.4680000000001,179.9260475921631L954.3056,-10.914219360351533L954.864,101.05919631958008L955.1432000000001,288.4729702148437L955.9807999999999,185.15488128662108L957.6560000000001,318.742962890625L958.7728,221.06499087524418L959.052,295.55758630371093L962.9608,197.70507133483886L963.7984,167.63007719421387L964.636,-1.4790888061523129L965.4736,64.68565951538086L966.5904,-40.995973388671864L967.4279999999999,285.60955792236325L967.9864,-11.01598681640622L969.6616,-46.249836547851594L971.0576,291.81453497314453L971.3367999999999,339.6854525756836L972.7328,192.0896666564941L973.2912,-35.75051971435549L975.2456,26.364138793945322L976.0832,19.245965515136714L976.6416,147.62510159683228L976.9208,335.06183935546875L977.7584,-36.93273870849608L978.3168,10.755304321289055L979.992,-18.305718200683614L982.5047999999999,304.1789924926758L983.9008,7.82933422851561L985.2968,282.1307420654297L986.6928,-33.96370605468748L990.3224,299.96150317382813L990.6016,284.8688426513672L990.8808,-13.114101379394516L993.6727999999999,263.95871044921876L995.6271999999999,-38.68841766357424L996.4648,-1.7932851562499805L997.8608,15.269132812500011L1000.3736,303.90369433593753L1000.6528,289.5502494506836L1002.328,325.6797035522461L1004.0031999999999,-6.028677795410128L1004.8408,-23.510427978515615L1005.9576000000001,311.0075749511719L1006.2368,23.598837158203125L1006.516,316.4507034301758L1007.0744000000001,170.12524143218994L1008.1912,310.74682324218753L1009.0288,330.4152586669922L1009.308,-26.500144042968728L1010.4248,373.0918370361328L1010.704,6.061231384277359L1010.9831999999999,74.20034564208984L1012.3792,296.8446527709961L1012.9376,150.70181237268446L1015.7296,230.96252197265625L1017.684,-14.452974426269499L1019.0799999999999,356.11236035156253L1019.6384,3.3700116577148345L1020.476,20.863862731933594L1023.8264,15.048986572265608L1024.664,214.99678619384764L1025.5016,98.76676382446287L1026.8976,-77.16903222656252L1029.4104,298.62260705566405L1030.248,15.128109558105455L1030.8064,-11.85358996582029L1032.7608,187.79235356140137L1033.8776,359.46191931152345L1034.1568,335.30691412353514L1036.3904,-15.830722595214825L1037.5072,2.428887634277347L1037.7864,306.38270434570313L1038.624,141.71466776275636L1039.1824,282.6075794677734L1041.1368,192.33703990173336L1042.2536,328.26890203857425L1043.3704,193.68666705322266L1044.4872,-4.6196334228515665L1045.0456000000001,108.68611747741697L1046.7208,1.8932991943359399L1050.6296,138.5969377670288L1051.188,110.04306399536131L1052.0256000000002,168.11539473724363L1052.8632,181.8458701171875L1053.7008,68.6699557800293L1053.98,301.62772320556644L1055.376,282.34386309814454L1057.6096,317.81772344970705L1059.2848000000001,50.61115228271483L1060.1224,287.86960986328126L1060.4016000000001,18.59400549316406L1062.6352,15.774693969726544L1064.8688,330.7700489501953L1068.4984,-21.013295471191423L1070.4528,305.58027337646485L1072.128,147.4782258052826L1073.5240000000001,132.20486265563963L1075.7576,292.3452092285156L1076.5952,181.44714056396484L1078.8288,14.96824859619139L1079.108,305.5751284790039L1079.3872,0.5756286621093918L1080.5040000000001,-0.029773498535136778L1081.0624,-42.01873516845702L1081.6208000000001,325.2573951416016L1082.4584,302.29480645751954L1083.0168,47.098156311035154L1084.4128,-31.70322729492187L1084.692,16.985867431640635L1085.5295999999998,2.377357910156247L1086.9256,167.5671920700073L1087.2048,281.3834284057617L1088.0424,17.16922650146486L1089.4384,-40.14560028076174L1089.9968000000001,51.61463800048829L1090.8344,-36.60891009521483L1091.1136,315.1007677001953L1091.3928,289.0151801147461L1092.2304,290.95181872558595L1093.9056,178.35453231811522L1095.0224,-16.65756298828127L1096.1392,290.5488901977539L1098.0936,212.74797573852538L1098.3728,-30.899735046386734L1098.9312,-24.17093591308595L1099.7687999999998,153.5947309513092L1103.9568,26.30513397216796L1104.236,264.89624688720704L1105.3528,232.00311785888672L1105.9112,305.48115911865233L1107.8655999999999,219.0555969543457L1108.424,-25.95063208007812L1108.9824,11.563918395996104L1109.8200000000002,85.27529690551758L1111.2160000000001,210.57110156249996L1111.4952,157.7908205680847L1111.7744,169.8026485748291L1112.0536,301.5344459838867L1112.3328,11.502791015624979L1112.612,-44.60690698242183L1113.7287999999999,73.96535302734375L1114.2872,288.50951513671873L1114.8455999999999,-35.01471862792967L1115.6832,345.9531950683594L1116.5208,61.785039001464824L1116.8,-3.2445384521484657L1117.6376,-27.817779968261757L1120.7087999999999,326.3275338134766L1122.1047999999998,-34.9158927612305L1122.384,291.2884172973633L1124.0592000000001,-41.17184582519529L1126.5720000000001,167.63211323547364L1126.8512,188.69323837280274L1128.2472,-44.14370471191408L1130.76,-17.003113220214882L1131.8768,271.91752075195313L1132.9936,-7.373526306152341L1133.5520000000001,152.7325491285324L1135.2272,-26.14356573486326L1136.0647999999999,325.60101892089847L1137.1816,158.81700771331788L1137.74,4.114545227050787L1138.0192,75.28666882324217L1139.136,-30.127389038085937L1140.2528,-26.763029846191433L1141.0904,77.16830548095703L1141.3696,149.31506306648254L1142.2072,149.29520625686644L1144.72,-13.436257324218774L1146.9536,40.93827209472654L1148.3496,-12.081695800781285L1148.6288,-33.203334045410124L1148.908,197.76197090148926L1149.1872,2.8283093261718784L1150.0248,42.06770397949221L1151.1416,1.3421837768554543L1153.096,177.77922088623046L1159.7968,-57.65918884277342L1160.6344000000001,-9.609618713378868L1161.1928,58.38217382812501L1161.7512000000002,44.5627716064453L1162.5888,48.542961181640614L1163.1472,20.62956225585936L1163.7056,-16.050891906738297L1164.264,2.161883605957027L1164.5432,6.869718566894539L1164.8224,335.23510473632814L1169.848,175.63740641784668L1172.3608,11.355192443847656L1172.6399999999999,188.10862921142578L1174.5944,322.3306060180664L1175.7112,318.70974023437503L1175.9904000000001,36.518020751953145L1177.3864,334.5803415527344L1177.6656,-2.6489877319336173L1178.5031999999999,295.0700784301758L1180.7368,-4.339409545898427L1181.5744,17.549960449218734L1181.8536,168.347277053833L1184.3664,83.27672341918945L1185.204,231.56566314697264L1185.4832,-15.574723571777376L1186.0416,-29.040431396484347L1186.3208,282.5054890136719L1187.1584,44.52821081542969L1187.4376,-6.076966003417958L1187.7168,284.26076422119144L1189.6712,70.4482907409668L1190.2296000000001,275.62117785644534L1190.788,289.8925697021484L1194.1384,292.97068341064454L1194.9759999999999,177.51874891662598L1195.2552,68.94566345214844L1195.5344,-51.46198681640622L1195.8136,-8.43930450439452L1196.9304,76.43115472412111L1197.768,-3.9075034790039083L1201.956,307.8441551513672L1202.2351999999998,51.49632843017578L1202.5144,61.55759069824221L1204.1896000000002,279.4298093261719L1204.748,-40.142439514160124L1205.8648,312.4036071166992L1206.9816,-27.896522277832L1207.2608,348.86869079589843L1208.6568,122.019889251709L1211.4488000000001,194.45989265441895L1213.9616,-0.0315615234374671L1214.52,69.05033212280271L1214.7992,37.92515020751954L1215.0783999999999,2.2298862304687512L1215.916,-33.94549127197266L1216.4743999999998,133.58131594848635L1217.312,175.7497261047363L1219.8248,194.03075514221192L1220.6624,-15.281868164062505L1221.5,334.538294128418L1224.292,209.8121888122559L1227.6424,197.16163288879395L1229.0384,-13.029268249511711L1230.7136,293.26676879882814L1230.9928,319.8013352050781L1231.5511999999999,306.5930568237305L1232.6680000000001,151.29468001914026L1234.3432,189.79581239318847L1235.1808,256.24650915527343L1235.7392,90.12992294311523L1236.2976,-8.004445312499989L1237.1352,187.89620896911623L1237.6936,10.469866333007818L1237.9728,36.25208953857424L1238.5312,149.80735922384264L1239.3688,148.96393228626252L1243.2776,199.25766526794433L1243.5568,27.28061114501954L1244.3944,315.7429916381836L1246.628,73.62854104614256L1246.9072,26.203274230957042L1249.42,25.16738488769529L1249.6992,186.56795159912107L1251.0952,42.43114599609374L1251.3744,11.13579602050781L1251.6535999999999,43.452615783691385L1252.4912,230.01079669189457L1252.7703999999999,346.06142248535156L1254.1664,177.65935977172853L1255.5624,314.1995454711914L1256.4,-1.0511856079101562L1258.6336,273.65636920166014L1259.7504,165.50147536468506L1260.3088,-9.782099670410172L1265.8928,-64.76090075683598L1266.172,258.947326538086L1267.2888,-37.67200048828123L1271.4768000000001,-1.28938513183591L1273.152,166.72930918121338L1273.9895999999999,8.959562072753922L1274.548,-49.904974731445336L1274.8272,4.880085205078144L1276.7816,294.0134133911133L1278.4568,-63.18450878906251L1279.0152,39.65779248046877L1279.2944,2.1255232543945475L1279.8528,265.5733892211914L1280.9696,14.908136352539055L1282.0864,-18.073378784179667L1283.4824,-10.169916503906252L1284.3200000000002,304.61456689453127L1286.8328,-3.3168323364258074L1287.3912,58.186800384521504L1288.508,-34.47930322265627L1289.0664,67.06135052490232L1290.1832,308.4799998779297L1291.0208,16.885795715332048L1292.6960000000001,-7.234844787597686L1293.5336,-5.658602783203117L1296.0464,341.2315288696289L1297.1632,24.413103698730463L1299.1176,-14.509983581542969L1299.9552,276.81783947753905L1301.9096,-20.021772216796876L1302.1888,54.69515689086915L1303.0264,17.855147460937506L1303.5847999999999,169.58787506103516L1305.8184,158.49117406082155L1306.0976,342.1884797973633L1306.9352000000001,93.28638674926758L1308.6104,309.23856079101563L1310.0064,36.96379266357424L1314.1944,47.34449999999999L1314.4736,283.42113079833985L1316.7072,14.474165405273443L1318.1032,158.83156713867186L1319.7784,327.2203927001953L1320.3368,27.786449157714838L1320.616,291.3202210693359L1322.2912000000001,-22.06320062255856L1325.0832,291.7838386230469L1325.9207999999999,355.2139874267578L1326.4792,17.867871276855464L1326.7584,-13.454495178222661L1327.0376,64.40138662719727L1328.1544000000001,93.410948638916L1330.9464,-1.0505511474609341L1331.2256,305.34588061523436L1331.7839999999999,240.27540353393553L1334.576,190.469309463501L1334.8552,270.7072816772461L1335.6928,320.2643067626953L1337.9264,288.0729140625L1339.6016,-14.363688537597648L1340.7184,148.52531824207304" style="fill: none;" fill="none"></path></g></g></g></g></g></g><g transform="translate(50, 378)" clip-path="url(#clip_1)"><clipPath id="clip_1"><rect width="1396" height="22"></rect></clipPath><g><g><line x1="0" y1="0" x2="0" y2="5" style="visibility: inherit;" fill="rgb(0, 0, 0)" stroke="rgb(204, 204, 204)" stroke-width="1px"></line><line x1="139.6" y1="0" x2="139.6" y2="5" style="visibility: inherit;" fill="rgb(0, 0, 0)" stroke="rgb(204, 204, 204)" stroke-width="1px"></line><line x1="279.2" y1="0" x2="279.2" y2="5" style="visibility: inherit;" fill="rgb(0, 0, 0)" stroke="rgb(204, 204, 204)" stroke-width="1px"></line><line x1="418.8" y1="0" x2="418.8" y2="5" style="visibility: inherit;" fill="rgb(0, 0, 0)" stroke="rgb(204, 204, 204)" stroke-width="1px"></line><line x1="558.4" y1="0" x2="558.4" y2="5" style="visibility: inherit;" fill="rgb(0, 0, 0)" stroke="rgb(204, 204, 204)" stroke-width="1px"></line><line x1="698" y1="0" x2="698" y2="5" style="visibility: inherit;" fill="rgb(0, 0, 0)" stroke="rgb(204, 204, 204)" stroke-width="1px"></line><line x1="837.6" y1="0" x2="837.6" y2="5" style="visibility: inherit;" fill="rgb(0, 0, 0)" stroke="rgb(204, 204, 204)" stroke-width="1px"></line><line x1="977.1999999999999" y1="0" x2="977.1999999999999" y2="5" style="visibility: inherit;" fill="rgb(0, 0, 0)" stroke="rgb(204, 204, 204)" stroke-width="1px"></line><line x1="1116.8" y1="0" x2="1116.8" y2="5" style="visibility: inherit;" fill="rgb(0, 0, 0)" stroke="rgb(204, 204, 204)" stroke-width="1px"></line><line x1="1256.4" y1="0" x2="1256.4" y2="5" style="visibility: inherit;" fill="rgb(0, 0, 0)" stroke="rgb(204, 204, 204)" stroke-width="1px"></line><line x1="1396" y1="0" x2="1396" y2="5" style="visibility: inherit;" fill="rgb(0, 0, 0)" stroke="rgb(204, 204, 204)" stroke-width="1px"></line></g><g transform="translate(0, 8)"><text x="0" y="0" dx="0em" dy="0.95em" style="text-anchor: middle; visibility: hidden; font-family: Roboto, sans-serif; font-size: 12px; font-weight: 200;" fill="rgb(50, 49, 63)" stroke="none" stroke-width="1px">-500</text><text x="139.6" y="0" dx="0em" dy="0.95em" style="text-anchor: middle; visibility: inherit; font-family: Roboto, sans-serif; font-size: 12px; font-weight: 200;" fill="rgb(50, 49, 63)" stroke="none" stroke-width="1px">0</text><text x="279.2" y="0" dx="0em" dy="0.95em" style="text-anchor: middle; visibility: inherit; font-family: Roboto, sans-serif; font-size: 12px; font-weight: 200;" fill="rgb(50, 49, 63)" stroke="none" stroke-width="1px">500</text><text x="418.8" y="0" dx="0em" dy="0.95em" style="text-anchor: middle; visibility: inherit; font-family: Roboto, sans-serif; font-size: 12px; font-weight: 200;" fill="rgb(50, 49, 63)" stroke="none" stroke-width="1px">1k</text><text x="558.4" y="0" dx="0em" dy="0.95em" style="text-anchor: middle; visibility: inherit; font-family: Roboto, sans-serif; font-size: 12px; font-weight: 200;" fill="rgb(50, 49, 63)" stroke="none" stroke-width="1px">1.5k</text><text x="698" y="0" dx="0em" dy="0.95em" style="text-anchor: middle; visibility: inherit; font-family: Roboto, sans-serif; font-size: 12px; font-weight: 200;" fill="rgb(50, 49, 63)" stroke="none" stroke-width="1px">2k</text><text x="837.6" y="0" dx="0em" dy="0.95em" style="text-anchor: middle; visibility: inherit; font-family: Roboto, sans-serif; font-size: 12px; font-weight: 200;" fill="rgb(50, 49, 63)" stroke="none" stroke-width="1px">2.5k</text><text x="977.1999999999999" y="0" dx="0em" dy="0.95em" style="text-anchor: middle; visibility: inherit; font-family: Roboto, sans-serif; font-size: 12px; font-weight: 200;" fill="rgb(50, 49, 63)" stroke="none" stroke-width="1px">3k</text><text x="1116.8" y="0" dx="0em" dy="0.95em" style="text-anchor: middle; visibility: inherit; font-family: Roboto, sans-serif; font-size: 12px; font-weight: 200;" fill="rgb(50, 49, 63)" stroke="none" stroke-width="1px">3.5k</text><text x="1256.4" y="0" dx="0em" dy="0.95em" style="text-anchor: middle; visibility: inherit; font-family: Roboto, sans-serif; font-size: 12px; font-weight: 200;" fill="rgb(50, 49, 63)" stroke="none" stroke-width="1px">4k</text><text x="1396" y="0" dx="0em" dy="0.95em" style="text-anchor: middle; visibility: hidden; font-family: Roboto, sans-serif; font-size: 12px; font-weight: 200;" fill="rgb(50, 49, 63)" stroke="none" stroke-width="1px">4.5k</text></g><line x1="0" y1="0" x2="1396" y2="0" fill="rgb(0, 0, 0)" stroke="rgb(204, 204, 204)" stroke-width="1px"></line></g></g></g></g></svg>