<svg viewBox="0 0 1446 400" xmlns="http://www.w3.org/2000/svg"><g><g><g><g><g><line x1="50" y1="378" x2="45" y2="378" style="visibility: inherit;" fill="rgb(0, 0, 0)" stroke="rgb(204, 204, 204)" stroke-width="1px"></line><line x1="50" y1="340.2" x2="45" y2="340.2" style="visibility: inherit;" fill="rgb(0, 0, 0)" stroke="rgb(204, 204, 204)" stroke-width="1px"></line><line x1="50" y1="302.40000000000003" x2="45" y2="302.40000000000003" style="visibility: inherit;" fill="rgb(0, 0, 0)" stroke="rgb(204, 204, 204)" stroke-width="1px"></line><line x1="50" y1="264.59999999999997" x2="45" y2="264.59999999999997" style="visibility: inherit;" fill="rgb(0, 0, 0)" stroke="rgb(204, 204, 204)" stroke-width="1px"></line><line x1="50" y1="226.79999999999998" x2="45" y2="226.79999999999998" style="visibility: inherit;" fill="rgb(0, 0, 0)" stroke="rgb(204, 204, 204)" stroke-width="1px"></line><line x1="50" y1="189" x2="45" y2="189" style="visibility: inherit;" fill="rgb(0, 0, 0)" stroke="rgb(204, 204, 204)" stroke-width="1px"></line><line x1="50" y1="151.20000000000002" x2="45" y2="151.20000000000002" style="visibility: inherit;" fill="rgb(0, 0, 0)" stroke="rgb(204, 204, 204)" stroke-width="1px"></line><line x1="50" y1="113.40000000000002" x2="45" y2="113.40000000000002" style="visibility: inherit;" fill="rgb(0, 0, 0)" stroke="rgb(204, 204, 204)" stroke-width="1px"></line><line x1="50" y1="75.59999999999998" x2="45" y2="75.59999999999998" style="visibility: inherit;" fill="rgb(0, 0, 0)" stroke="rgb(204, 204, 204)" stroke-width="1px"></line><line x1="50" y1="37.79999999999999" x2="45" y2="37.79999999999999" style="visibility: inherit;" fill="rgb(0, 0, 0)" stroke="rgb(204, 204, 204)" stroke-width="1px"></line><line x1="50" y1="0" x2="45" y2="0" style="visibility: inherit;" fill="rgb(0, 0, 0)" stroke="rgb(204, 204, 204)" stroke-width="1px"></line></g><g transform="translate(40, 0)"><text x="0" y="378" dx="0em" dy="0.3em" style="text-anchor: end; visibility: hidden; font-family: Roboto, sans-serif; font-size: 12px; font-weight: 200;" fill="rgb(50, 49, 63)" stroke="none" stroke-width="1px">-300</text><text x="0" y="340.2" dx="0em" dy="0.3em" style="text-anchor: end; visibility: inherit; font-family: Roboto, sans-serif; font-size: 12px; font-weight: 200;" fill="rgb(50, 49, 63)" stroke="none" stroke-width="1px">-250</text><text x="0" y="302.40000000000003" dx="0em" dy="0.3em" style="text-anchor: end; visibility: inherit; font-family: Roboto, sans-serif; font-size: 12px; font-weight: 200;" fill="rgb(50, 49, 63)" stroke="none" stroke-width="1px">-200</text><text x="0" y="264.59999999999997" dx="0em" dy="0.3em" style="text-anchor: end; visibility: inherit; font-family: Roboto, sans-serif; font-size: 12px; font-weight: 200;" fill="rgb(50, 49, 63)" stroke="none" stroke-width="1px">-150</text><text x="0" y="226.79999999999998" dx="0em" dy="0.3em" style="text-anchor: end; visibility: inherit; font-family: Roboto, sans-serif; font-size: 12px; font-weight: 200;" fill="rgb(50, 49, 63)" stroke="none" stroke-width="1px">-100</text><text x="0" y="189" dx="0em" dy="0.3em" style="text-anchor: end; visibility: inherit; font-family: Roboto, sans-serif; font-size: 12px; font-weight: 200;" fill="rgb(50, 49, 63)" stroke="none" stroke-width="1px">-50</text><text x="0" y="151.20000000000002" dx="0em" dy="0.3em" style="text-anchor: end; visibility: inherit; font-family: Roboto, sans-serif; font-size: 12px; font-weight: 200;" fill="rgb(50, 49, 63)" stroke="none" stroke-width="1px">0</text><text x="0" y="113.40000000000002" dx="0em" dy="0.3em" style="text-anchor: end; visibility: inherit; font-family: Roboto, sans-serif; font-size: 12px; font-weight: 200;" fill="rgb(50, 49, 63)" stroke="none" stroke-width="1px">50</text><text x="0" y="75.59999999999998" dx="0em" dy="0.3em" style="text-anchor: end; visibility: inherit; font-family: Roboto, sans-serif; font-size: 12px; font-weight: 200;" fill="rgb(50, 49, 63)" stroke="none" stroke-width="1px">100</text><text x="0" y="37.79999999999999" dx="0em" dy="0.3em" style="text-anchor: end; visibility: inherit; font-family: Roboto, sans-serif; font-size: 12px; font-weight: 200;" fill="rgb(50, 49, 63)" stroke="none" stroke-width="1px">150</text><text x="0" y="0" dx="0em" dy="0.3em" style="text-anchor: end; visibility: hidden; font-family: Roboto, sans-serif; font-size: 12px; font-weight: 200;" fill="rgb(50, 49, 63)" stroke="none" stroke-width="1px">200</text></g><line x1="50" y1="0" x2="50" y2="378" fill="rgb(0, 0, 0)" stroke="rgb(204, 204, 204)" stroke-width="1px"></line></g></g><g transform="translate(50, 0)" clip-path="url(#clip_0)"><clipPath id="clip_0"><rect width="1396" height="378"></rect></clipPath><g><g><g><line x1="0" y1="0" x2="0" y2="378" fill="rgb(0, 0, 0)" stroke="rgb(60, 60, 60)" stroke-width="1px" opacity="0.25"></line><line x1="139.6" y1="0" x2="139.6" y2="378" fill="rgb(0, 0, 0)" stroke="rgb(60, 60, 60)" stroke-width="1px" opacity="0.25"></line><line x1="279.2" y1="0" x2="279.2" y2="378" fill="rgb(0, 0, 0)" stroke="rgb(60, 60, 60)" stroke-width="1px" opacity="0.25"></line><line x1="418.8" y1="0" x2="418.8" y2="378" fill="rgb(0, 0, 0)" stroke="rgb(60, 60, 60)" stroke-width="1px" opacity="0.25"></line><line x1="558.4" y1="0" x2="558.4" y2="378" fill="rgb(0, 0, 0)" stroke="rgb(60, 60, 60)" stroke-width="1px" opacity="0.25"></line><line x1="698" y1="0" x2="698" y2="378" fill="rgb(0, 0, 0)" stroke="rgb(60, 60, 60)" stroke-width="1px" opacity="0.25"></line><line x1="837.6" y1="0" x2="837.6" y2="378" fill="rgb(0, 0, 0)" stroke="rgb(60, 60, 60)" stroke-width="1px" opacity="0.25"></line><line x1="977.1999999999999" y1="0" x2="977.1999999999999" y2="378" fill="rgb(0, 0, 0)" stroke="rgb(60, 60, 60)" stroke-width="1px" opacity="0.25"></line><line x1="1116.8" y1="0" x2="1116.8" y2="378" fill="rgb(0, 0, 0)" stroke="rgb(60, 60, 60)" stroke-width="1px" opacity="0.25"></line><line x1="1256.4" y1="0" x2="1256.4" y2="378" fill="rgb(0, 0, 0)" stroke="rgb(60, 60, 60)" stroke-width="1px" opacity="0.25"></line><line x1="1396" y1="0" x2="1396" y2="378" fill="rgb(0, 0, 0)" stroke="rgb(60, 60, 60)" stroke-width="1px" opacity="0.25"></line></g><g><line x1="0" y1="378" x2="1396" y2="378" fill="rgb(0, 0, 0)" stroke="rgb(60, 60, 60)" stroke-width="1px" opacity="0.25"></line><line x1="0" y1="340.2" x2="1396" y2="340.2" fill="rgb(0, 0, 0)" stroke="rgb(60, 60, 60)" stroke-width="1px" opacity="0.25"></line><line x1="0" y1="302.40000000000003" x2="1396" y2="302.40000000000003" fill="rgb(0, 0, 0)" stroke="rgb(60, 60, 60)" stroke-width="1px" opacity="0.25"></line><line x1="0" y1="264.59999999999997" x2="1396" y2="264.59999999999997" fill="rgb(0, 0, 0)" stroke="rgb(60, 60, 60)" stroke-width="1px" opacity="0.25"></line><line x1="0" y1="226.79999999999998" x2="1396" y2="226.79999999999998" fill="rgb(0, 0, 0)" stroke="rgb(60, 60, 60)" stroke-width="1px" opacity="0.25"></line><line x1="0" y1="189" x2="1396" y2="189" fill="rgb(0, 0, 0)" stroke="rgb(60, 60, 60)" stroke-width="1px" opacity="0.25"></line><line x1="0" y1="151.20000000000002" x2="1396" y2="151.20000000000002" fill="rgb(0, 0, 0)" stroke="rgb(60, 60, 60)" stroke-width="1px" opacity="0.25"></line><line x1="0" y1="113.40000000000002" x2="1396" y2="113.40000000000002" fill="rgb(0, 0, 0)" stroke="rgb(60, 60, 60)" stroke-width="1px" opacity="0.25"></line><line x1="0" y1="75.59999999999998" x2="1396" y2="75.59999999999998" fill="rgb(0, 0, 0)" stroke="rgb(60, 60, 60)" stroke-width="1px" opacity="0.25"></line><line x1="0" y1="37.79999999999999" x2="1396" y2="37.79999999999999" fill="rgb(0, 0, 0)" stroke="rgb(60, 60, 60)" stroke-width="1px" opacity="0.25"></line><line x1="0" y1="0" x2="1396" y2="0" fill="rgb(0, 0, 0)" stroke="rgb(60, 60, 60)" stroke-width="1px" opacity="0.25"></line></g></g></g><g><g><line x1="0" y1="151.20000000000002" x2="1396" y2="151.20000000000002" fill="rgb(0, 0, 0)" stroke="rgb(153, 153, 153)" stroke-width="1.5px"></line></g></g><g><g><line x1="139.6" y1="0" x2="139.6" y2="378" fill="rgb(0, 0, 0)" stroke="rgb(153, 153, 153)" stroke-width="1.5px"></line></g></g><g><g><g><g><g><path stroke="rgb(255, 112, 67)" stroke-width="2px" d="M140.7168,255.34865533447265L143.5088,245.17067364343316L143.78799999999998,240.04000077669633L144.6256,216.77400509629751L144.9048,224.820456468655L145.7424,231.26396137342152L146.85920000000002,245.4905842517571L147.1384,256.58004740254245L150.768,256.436345157796L152.7224,262.80392638907745L153.0016,258.29405810004084L153.2808,254.69042723564004L154.6768,261.9346532858333L156.9104,256.42872588339566L157.1896,255.29263504977996L158.0272,253.0066312586743L158.3064,252.57564989519648L159.144,250.6174875337087L159.4232,249.81307925335778L161.0984,256.0013877687103L162.4944,253.9934074290867L164.4488,260.22013795700263L167.2408,261.35822530744696L168.3576,259.62201961086333L169.1952,259.27786349372985L169.4744,258.07720172640734L173.38320000000002,256.81141300122107L174.5,255.82645834620374L174.7792,254.587889651962L175.33759999999998,260.92826912836244L175.89600000000002,260.99923966328225L177.5712,259.51257220330706L179.8048,264.7098334570548L180.3632,262.7459430764068L180.64239999999998,262.06309193882413L181.48000000000002,261.0078566548235L183.43439999999998,262.7153246774248L184.27200000000002,272.1928866696202L184.8304,271.5227033292988L185.3888,270.3727697838455L187.34320000000002,271.19018987962517L187.6224,271.61774853969774L189.01839999999999,271.0097458117172L190.9728,269.7027268923184L191.252,267.7792198657779L191.53119999999998,269.6937884060537L192.9272,273.4809027121099L193.2064,276.5871497555697L195.16080000000002,279.6903578307777L195.9984,280.6308536059123L196.2776,284.3413732309256L196.83599999999998,285.4423531183381L198.5112,288.17166884339105L199.0696,288.84734650597954L199.628,290.380018023319L201.02399999999997,292.02002974319964L201.3032,289.92655797467773L202.1408,294.06159970520247L203.53680000000003,291.68071827996044L207.7248,290.8632102921433L208.004,292.03205959426833L211.63360000000003,290.3387230631313L211.91279999999998,291.49897134500475L212.192,294.05725322601876L215.2632,295.48035914395115L216.1008,297.6885276447501L217.21759999999998,301.1311864849309L218.33440000000002,299.027545560682L219.172,300.88871109020886L220.00959999999998,303.09719341655153L220.568,302.74233828568555L221.964,301.0674455778903L222.52239999999998,302.7830152146415L222.80159999999998,302.4945805330546L225.59359999999998,305.01020152855716L226.7104,303.2633287150358L227.8272,303.2480922335812L228.38559999999998,303.9254677753528L228.6648,304.7816713859672L229.5024,305.22748667510655L233.69039999999998,305.1112722296673L233.96959999999999,303.99110337654696L235.924,304.53034207695094L236.20319999999998,305.58515082069647L237.8784,308.517666643455L238.4368,308.5008735482892L239.55360000000002,309.7397723225708L241.2288,309.17501639936194L241.50799999999998,311.03654732667997L241.78719999999998,310.7074695274498L242.0664,310.19193291869L245.13760000000002,308.65706819445904L247.3712,310.9284338004815L248.488,309.6683066631931L249.0464,309.71783907241746L250.4424,311.3675940715247L251.8384,313.8882828561734L252.39679999999998,314.6376767024593L255.468,314.54619970720825L257.1432,317.0429645067082L257.42240000000004,319.32271062352737L258.5392,318.523539278344L261.3312,318.54220001410687L261.6104,320.0477035763631L262.1688,319.43792497985913L263.2856,319.5748824995967L263.5648,318.5237849555512L264.1232,319.33581844544153L265.24,321.8386508355316L265.7984,322.2638764401691L266.9152,322.4611417085019L268.3112,321.9083449216624L269.428,322.2315014370947L270.2656,324.18049114569124L270.824,323.57419205658556L271.9408,323.077834451427L272.22,322.07167227221413L273.616,322.30779734515266L273.89520000000005,321.3308461946833L275.5704,320.4037678563861L276.1288,319.65672734438397L277.5248,318.8016769863201L281.992,317.3005700566761L282.27119999999996,317.7596689704475L282.55039999999997,318.40602611848476L282.8296,320.22613334854793L283.10880000000003,319.6330511636307L283.9464,319.72303226521996L284.2256,319.63007859667925L284.5048,319.5739354062029L288.41360000000003,319.93742593408695L288.69280000000003,320.83817853264856L289.2512,320.173592222233L289.5304,319.6119243124195L289.8096,319.11131844706944L290.368,319.3023508547718L291.4848,319.4050060186945L292.0432,320.01444730457985L293.15999999999997,321.08606882282146L293.71840000000003,320.69698687998886L294.8352,320.6490997091795L296.5104,319.52903902382576L297.0688,319.4046853289374L298.1856,318.38035234145315L299.58160000000004,318.6410829808024L302.6528,318.84577179467385L302.932,319.4734829284106L303.76959999999997,318.58908268452967L304.328,318.5228947791437L304.60720000000003,318.7765098971266L305.4448,319.1253989529151L306.0032,319.98044063074974L307.9576,320.69203243991086L309.3536,320.1166560705778L310.7496,320.5075488836502L311.0288,320.8247346665274L313.26239999999996,320.3605945287558L313.5416,319.69345873495615L314.3792,320.0854981444922L314.9376,319.57120522054277L315.2168,319.8661054613558L316.3336,319.95173490604896L317.4504,320.28827581377635L319.1256,320.5210314904155L319.4048,320.1831311346104L320.8008,320.5891274823619L321.3592,320.74502003855594L322.476,320.0227435193792L323.3136,320.1796299581886L323.872,319.696990192936L325.8264,318.90186482000587L326.66400000000004,317.81919859894174L328.06,317.02562702836195L328.3392,317.4336751222684L329.45599999999996,316.80253202135816L330.57280000000003,317.08935951795326L332.8064,317.16732029652417L333.3648,317.4126377070651L334.2024,317.51860596453065L337.832,317.62673134492917L339.228,316.545837403899L340.9032,316.67332492325403L341.46160000000003,316.89866483720084L342.02,316.95842400034644L342.2992,316.794010954901L342.8576,316.7505825974787L343.1368,316.16330737454024L343.6952,316.20562480186885L343.9744,316.1240492575583L344.2536,315.4313588389514L345.64959999999996,315.0069410709221L347.3248,314.94209738758883L352.90880000000004,314.3403462421627L353.188,314.0249849237439L355.1424,313.94110483734454L355.98,313.141569536306L356.25919999999996,313.47587558624866L356.81759999999997,313.20555190095445L357.37600000000003,313.30822360993255L357.93440000000004,313.45619248602617L359.6096,313.4267577028626L364.0768,312.62098364900095L364.356,311.97703446299676L364.91440000000006,312.2570600064131L365.752,312.01348623958813L367.9856,312.19055639812865L368.2648,311.4717310732395L370.7776,311.55019098055607L371.8944,310.7902889743113L372.1736,311.11638746812457L372.732,310.29854738646316L373.0112,310.3987728625458L374.12800000000004,309.89178531472663L374.9656,308.8280614393385L375.524,308.9071762582112L377.1992,308.34913075401914L378.8744,308.57780935672025L379.71200000000005,308.4121063570983L380.27039999999994,307.81903997925616L381.3872,307.6365069159081L382.504,306.7215390753563L382.7832,306.08132528259017L386.4128,306.0306747229482L386.9712,306.08589541795783L388.64639999999997,305.5749021479708L389.48400000000004,304.9209081591898L390.0424,304.4008000579868L391.1592,303.58954707577317L391.4384,302.88263011849074L393.1136,302.81902525065857L393.67199999999997,302.4223561980552L395.90560000000005,301.3766296747422L398.6976,301.34561587987946L399.256,301.4499682148302L399.8144,301.353408217178L402.6064,300.92472974147853L404.56080000000003,300.96149969099L405.3984,299.61466874802744L406.236,299.6480841189731L408.4696,299.47909466422857L412.9368,299.5376270948121L413.7744,299.4476539007447L414.8912,298.9517695638506L416.5664,298.569717664643L417.1248,297.64661431155474L418.5208,297.3778199739268L419.3584,297.3829645336278L419.63759999999996,295.94809933202737L419.9168,295.9048712966729L420.47520000000003,296.13011215809536L422.4296,295.6220808133583L422.988,295.6447269489785L424.9424,295.8216445645982L426.05920000000003,295.30301455520043L426.6176,295.30049005279864L428.85119999999995,294.94663212225026L429.1304,295.1786246883186L431.6432,294.17347014729955L434.43519999999995,294.2486459160444L435.552,293.96490877199926L436.1104,294.01942397106757L438.344,294.03686382017924L438.6232,293.0359982645339L439.1816,293.03835068656167L440.2984,293.0078967778046L442.8112,292.54162016402006L446.1616,292.6415590297396L447.27840000000003,292.8659845856157L447.8368,291.99998021244204L448.67440000000005,291.07204636063335L449.23279999999994,291.30288844428947L449.7912,290.275633525847L452.5832,290.3791942584692L452.86240000000004,289.31825407631607L453.7,289.3107233060817L453.9792,289.22494048532286L454.81679999999994,288.8883962440415L455.6544,288.93523158253413L456.21279999999996,288.5182162692938L457.6088,287.75758726988647L459.5632,286.94629754916576L460.9592,286.1658058846683L461.2384,285.8412103625673L464.0304,285.3983702319234L464.5888,285.33389635317434L467.38079999999997,285.42787874545394L467.93919999999997,285.56038956004085L468.2184,285.5473708596128L469.6144,285.72299295609724L470.1728,284.93080570400997L471.5688,284.98054986450325L472.6856,285.06446265322893L472.96479999999997,284.719750168467L476.3152,284.8457819542575L478.54879999999997,285.0894267487854L479.66560000000004,285.1057991184898L481.0616,284.33071484750405L481.61999999999995,284.28934907255757L482.7368,283.8757225102426L486.9248,283.34227037221467L487.4832,282.55966847989333L488.59999999999997,282.75779149427024L488.8792,282.4315212233961L489.1584,281.9398055747404L489.7168,281.8387272918995L490.5544,280.77093266938516L491.392,280.98760589069894L491.6712,280.62898751824025L493.3464,280.66826616689013L494.46320000000003,280.86759430243893L495.85920000000004,280.05040295088276L496.41760000000005,279.2123447122212L497.5344,278.4840155698076L498.37199999999996,278.7189521817175L499.768,277.97889254500325L500.6056,278.0946609424676L502.00159999999994,277.8008158624962L502.2808,277.1146129608974L503.1184,276.8622535673028L504.2352,277.0209319493655L506.748,276.8539202818679L508.7024,276.5699924521767L509.53999999999996,276.6765419444413L509.8192,275.9808437059917L512.332,276.0796337818195L515.124,275.33253679229813L515.9616,275.52180294589897L517.6368,275.63975098520206L519.312,274.8905670080173L520.4288,273.91448158301455L523.5,273.7088456918301L523.7792,273.7142471171138L524.896,273.8959582105454L526.5712,272.9370322917618L527.688,272.6036660831362L528.5255999999999,271.5777467732452L535.2264,271.78745817142095L536.3432,271.21416802234637L539.1351999999999,270.61803234046783L540.5312,270.2889767474608L541.0896,269.6697141755207L541.3688,268.8543056247889L541.648,268.5874510422941L541.9272,267.9662686986086L544.1608,268.2059849755289L546.3944,268.3500934536328L546.6736,268.4412960439205L547.232,267.9638753944703L547.5112,267.1535682932288L550.8616,266.8450635423358L551.1408,267.06773244508895L551.6992,267.11248650873324L554.7704,267.31989379317895L555.6080000000001,267.51914505613564L556.7248,266.8388068048745L557.8416,266.94651491387776L558.9584,266.02256004893366L560.9128,265.8197284847033L561.192,265.9689816586195L561.4712,265.7528172528338L562.0296000000001,265.1155748869426L562.8672,265.33220098979507L566.2176000000001,264.4842251264685L567.8928,263.5885719753172L568.7304,263.3431440831456L569.0096,263.5505274067862L571.8016,262.64307297390957L572.6392,262.7198364189313L572.9184,261.8566525473681L575.7103999999999,260.9332148369702L576.548,259.9185396993247L576.8272000000001,259.71516929869296L577.3856000000001,259.8852906127312L578.5024,259.1254710371528L578.7816,259.20963354604606L579.6192,258.8767289313575L580.736,258.9488462723588L582.132,258.64569325721004L585.2032,258.2158554888036L586.5992,257.36448951428923L587.1576,257.6070339731862L589.3912,257.75865814528123L593.8584,257.80059326054095L596.092,256.901301316388L596.6504,256.7480278497801L597.4879999999999,255.9902981628006L599.1632000000001,255.42789839570548L599.4424,254.7439272800268L601.3968,254.03094972880754L603.6304,253.28159678704364L604.7471999999999,253.10841965150823L605.864,253.22722116856102L606.9808,252.37653424799666L607.8184,252.50555048562975L608.3768,252.62651673513525L610.052,252.39009179803546L610.6104,252.48875705461074L610.8896,252.5877565590351L612.5648,252.37654621504456L612.844,251.60424458200535L614.7984,250.782482786862L615.3568,250.4026784421054L616.1944,250.2231892039271L616.7528000000001,250.07003969400907L617.032,249.9308965763958L617.3112,249.06234119451327L619.2656,248.4522668633318L620.3824000000001,247.56808851079003L620.6616,247.65930587771234L621.22,246.95570579696104L622.616,246.2515663013214L624.8496,245.51642333827678L625.1288,245.663162399157L626.2456,245.73442840197504L626.804,244.94140823281057L629.0376,245.05499492656995L629.3168,244.32935611347142L632.388,243.6515112246538L635.1800000000001,243.49400466763808L635.7384000000001,242.63038414950762L637.6928,242.77649681509996L637.972,242.87429817523275L638.2512,242.64696791993427L639.0888,241.87331666462904L639.9264,241.14326747734788L641.0432,240.90272179744642L642.1600000000001,240.7626385336176L647.4648,240.92509404869034L648.5816,241.22802080432788L649.6984,241.12224001645743L650.5360000000001,241.262788590138L651.0944,241.25911516887828L652.2112,241.43358313599853L652.7696,241.58904918130767L655.2823999999999,241.21687285040235L656.3992000000001,240.44548673703378L658.9119999999999,239.76369272342728L660.308,239.101843179016L660.5872,238.51504779279452L660.8664,238.678512675598L664.496,238.80537368651474L665.3336,238.57660018695077L666.7296,238.45548805361872L668.684,238.67365773374078L669.8008,238.82445939752043L670.6384,238.72225578361412L672.3136,238.3820682984194L672.5928,237.7902798406151L672.872,237.71143675875706L673.7095999999999,237.05945184489255L675.1056,236.28966621397723L676.7808,235.6552268628267L677.06,235.21596169794265L679.852,234.58273515265603L680.1312,234.71931001131964L681.2479999999999,234.93975764310915L681.5272,234.73940904889554L682.644,234.58490245225138L683.2024,234.85616681569067L684.8776,234.411070378298L685.7152,233.74008696011887L686.832,233.05254522140933L687.1112,233.26331477401666L687.6696,233.11746273031451L687.9488,232.4366715982516L688.5072,232.6850245639043L691.5784,232.88151459560098L692.1368,233.06038970213703L694.3704,232.97728169091846L694.6496,233.22142200027378L695.4871999999999,233.16425750761942L705.2592,232.90872027615526L707.772,232.13801234355188L708.0512,231.52815557110037L710.0056000000001,231.00509499554528L711.1224,230.4029222401444L713.0768,230.2376529526825L713.356,229.5803645139849L716.7063999999999,229.7471905328753L717.544,229.06473510322377L720.0568000000001,229.16110403141963L722.2904,228.65956593708165L722.8488000000001,228.08702689842673L725.0824,227.93251046043886L725.3616,228.18150487447753L725.9200000000001,227.5290286782902L726.7575999999999,227.7722723379492L728.4328,227.67592087202544L728.712,227.79273837122585L729.8288000000001,227.26464035574827L730.1080000000001,227.19814049634215L731.2248000000001,226.59763763888077L731.504,226.53908257482684L732.6208,225.98098432432658L733.4584,226.14234881991004L735.9712,225.5833635622371L736.8088,224.82180102684438L739.6008,224.73412183084207L742.3928000000001,224.8881854297448L745.1848000000001,224.716753058634L747.1392,224.4813997962581L750.2103999999999,224.36561263365374L752.1647999999999,224.4549245945938L754.1192,224.58234194250235L754.6776,224.07523071465573L756.3527999999999,224.29582841017697L756.9112,224.20547128569277L757.7488,223.52046637006328L758.028,223.16645099332413L759.7032,222.89544377702367L760.82,222.713690020914L763.8912,222.07085050232968L764.7288,221.960708047092L766.1247999999999,222.20795121028422L769.7544,221.8158933269346L772.5464,222.0556263343584L776.4552,221.50031740955373L781.7600000000001,221.4627081165885L783.1560000000001,221.6934466755156L783.4352,221.27305952122958L784.8312000000001,221.2634907893246L786.2272,221.5991558871336L787.0648,221.26306790815875L788.4608,220.76568979225502L790.6944,220.98805529798054L791.5319999999999,220.85873382284547L793.4864,221.06872073242624L793.7656,221.2642543346913L794.0448,220.90271654383872L794.6032,220.3895268843456L796.2784,220.63742274168536L798.2328,220.84469912873436L802.1416,220.98708470748798L805.2128,220.3196072253462L806.6088,219.8018610701822L807.1672000000001,219.62358542025692L807.7256,219.02767089466786L808.0047999999999,218.46644187319737L808.8424,218.70976624737813L809.1216000000001,218.17966666163707L817.4976,218.33456717462502L818.3352000000001,217.78280256736215L819.452,217.68034960547953L819.7312000000001,217.08489904532317L821.1271999999999,216.49754564361572L821.4064000000001,216.8527305465491L824.7568,217.10213921853287L826.9904,216.65844719138258L827.5488,216.87706897329772L827.828,217.15017407190987L828.9448,216.7833198082242L831.1784,216.92934813174088L833.4119999999999,216.3945145382911L834.5288,216.21050193153667L835.6456000000001,215.62823773979756L837.0416,215.86661976368958L837.6,215.8108235375596L838.4376,215.24350081676982L838.996,215.4748850388416L839.2751999999999,215.73587725375396L839.8336,215.71158897802124L841.2296,215.23439590628345L842.3464,215.10125196185157L842.6256000000001,214.6330324837779L842.9048,214.39104185753484L843.4631999999999,214.35610593841676L844.0216,214.50091801150015L845.4176,214.5427747031147L845.976,213.9944510544601L848.2096,213.87080365057304L855.7479999999999,213.3495122616506L856.0272,212.8895890358913L856.5856,213.05092743082938L859.0984,213.06112187983203L859.3776,213.32806383287289L861.0528,213.64803456387028L861.332,213.20515338967908L862.1696000000001,212.8130898814844L862.4488,212.72795638238767L863.2864,212.89736323844514L865.2408,212.66273791136211L865.7991999999999,212.6716729984843L867.1952,212.26106650560726L870.5456,211.72149825419882L870.8248,211.91663994032774L873.0583999999999,211.3385877973543L873.3376000000001,211.21568589459082L875.0128000000001,210.6894491354648L875.292,210.8807568993987L876.1296000000001,211.1100504137101L876.4088,210.57284660733637L876.688,210.02439889225118L877.5256,210.3082685602308L882.8303999999999,209.8610731168999L885.064,209.40836158091375L885.3432,209.5709119757746L885.6224,209.5331098493993L886.1808000000001,209.093097390271L888.1351999999999,209.11439308524888L888.9728,208.81574681234724L889.5312,208.4364876244447L890.3688000000001,208.28691854549638L891.4856,208.5033197724233L893.9984,208.78601613533266L895.1152,208.92143201835617L895.6736,208.802761268123L896.7904,209.01441213125585L897.0695999999999,208.59563276720988L898.1863999999999,208.1809245533514L898.4655999999999,208.09392665279242L898.7448,208.2615132202706L900.1408,207.8073346737645L901.5368000000001,207.75706874405608L901.816,207.91738474572273L902.9328,207.4612680655104L904.3288000000001,207.08522639974055L904.6080000000001,207.42005084353872L904.8872,206.9585379930261L905.7248000000001,206.91252573388837L906.004,206.43734278932527L908.2375999999999,206.0112464158843L908.5168000000001,205.68046224960548L908.796,205.84840800234508L910.192,205.42365857468016L910.4712,204.92171793057477L911.5880000000001,204.46535091934945L912.4255999999999,204.42027396744263L913.2632,204.63136711701532L913.8216,204.6158530559444L914.38,204.75257055979665L915.2176,205.02908115905097L917.172,205.29702885293295L920.5224,204.8224709936397L921.0808000000001,204.76203169337145L924.7103999999999,204.7225559937014L924.9896,204.26238522954787L928.0608,203.7945020726432L930.8527999999999,203.813403585965L931.4112,203.2860142552061L931.9696,202.8660635211738L932.8072,203.11965594405885L933.6447999999999,202.64349717364993L934.4824,202.60465126220376L935.5992,202.6879609523169L935.8783999999999,202.90826166843829L937.2744,202.79222919396275L937.8327999999999,202.73160146212675L938.3912,202.61557627168514L938.6704,202.50339589243185L939.7872,202.05613809297242L943.4168,201.6729701786005L943.9752000000001,201.7515255236245L944.2544,201.28038931987626L944.8127999999999,201.2632559231141L946.2088,200.85410372286913L946.7672,200.8549792971041L947.3256,201.2029280508035L947.884,201.17858496389977L950.1175999999999,201.1130372813265L952.3512000000001,201.13078940081812L953.1887999999999,201.29331235193158L953.4680000000001,201.24919720872106L954.3056,200.81162759788066L954.864,200.6061147466537L955.1432000000001,200.78694886440118L955.9807999999999,200.75481133772996L957.6560000000001,200.99712399834675L958.7728,201.03829406249218L959.052,201.23200063400333L962.9608,201.22478016939672L963.7984,201.1560757579735L964.636,200.74209992510157L965.4736,200.46443145764803L966.5904,199.9721634746273L967.4279999999999,200.146572212282L967.9864,199.716964810384L969.6616,199.21706578185598L971.0576,199.40506532283217L971.3367999999999,199.6895817915976L972.7328,199.67418348775453L973.2912,199.19767486256333L975.2456,198.84821102369216L976.0832,198.485431821165L976.6416,198.3828035335875L976.9208,198.65832027509148L977.7584,198.18389921280567L978.3168,197.8068474596408L979.992,197.37253131161327L982.5047999999999,197.58696114499753L983.9008,197.20637802077098L985.2968,197.376533551813L986.6928,196.91348204305544L990.3224,197.11953697103206L990.6016,197.29482535357113L990.8808,196.8749304843877L993.6727999999999,197.0086706197104L995.6271999999999,196.53924462325276L996.4648,196.14462705472133L997.8608,195.785099155408L1000.3736,195.9997954334098L1000.6528,196.1853801153419L1002.328,196.44201749520434L1004.0031999999999,196.0411460180946L1004.8408,195.6068816656334L1005.9576000000001,195.83491667536404L1006.2368,195.4949052075619L1006.516,195.73345183701747L1007.0744000000001,195.68299688299172L1008.1912,195.90948333114991L1009.0288,196.17398230625176L1009.308,195.7365273948142L1010.4248,196.0846153829947L1010.704,195.71202296455849L1010.9831999999999,195.47399503220493L1012.3792,195.6723787075121L1012.9376,195.58445487755085L1015.7296,195.6535580088629L1017.684,195.24355279830874L1019.0799999999999,195.5571763473525L1019.6384,195.18285119603954L1020.476,194.84364956238102L1023.8264,194.4941235974789L1024.664,194.53394376832574L1025.5016,194.34812030258584L1026.8976,193.82177236814388L1029.4104,194.02474289583967L1030.248,193.67859333716666L1030.8064,193.28127774200019L1032.7608,193.27067695876397L1033.8776,193.59134419196425L1034.1568,193.86453150429102L1036.3904,193.46067336104687L1037.5072,193.09310007702373L1037.7864,193.31088469179994L1038.624,193.21178903956383L1039.1824,193.38332460639154L1041.1368,193.38131880407286L1042.2536,193.639670983499L1043.3704,193.63976091345086L1044.4872,193.26072529556106L1045.0456000000001,193.09918144765115L1046.7208,192.73429593652875L1050.6296,192.63107729911408L1051.188,192.47375708603644L1052.0256000000002,192.4273992892854L1052.8632,192.40727914574373L1053.7008,192.17221194026712L1053.98,192.37996067618323L1055.376,192.5505607488439L1057.6096,192.7878942661553L1059.2848000000001,192.51876431130552L1060.1224,192.69909531903437L1060.4016000000001,192.3701146027878L1062.6352,192.0367248433273L1064.8688,192.29840342857446L1068.4984,191.8964114707118L1070.4528,192.11046260450817L1072.128,192.0265003457682L1073.5240000000001,191.91406283395906L1075.7576,192.10266189844052L1076.5952,192.08266950823185L1078.8288,191.7506500339044L1079.108,191.96383944664188L1079.3872,191.60568843056222L1080.5040000000001,191.24738692514813L1080.7832,190.87092297389475L1081.0624,190.4362440565129L1081.6208000000001,190.68766431515874L1082.4584,190.89561425136333L1083.0168,190.62791739103625L1084.4128,190.21437661790668L1084.692,189.89244468510074L1085.5295999999998,189.54426112967838L1086.9256,189.50348839356747L1087.2048,189.67380206818518L1088.0424,189.35431090108352L1089.4384,188.929622044773L1089.9968000000001,188.67573703157146L1090.8344,188.25955607520012L1091.1136,188.49367857007005L1091.3928,188.67906355724529L1092.2304,188.86751916241047L1093.9056,188.8481634389515L1095.0224,188.4701196796062L1096.1392,188.65774398817047L1098.0936,188.70198559081402L1098.3728,188.29902508971287L1098.9312,187.90947634426806L1099.7687999999998,187.84661505999406L1103.9568,187.55093271874227L1104.236,187.69238659597272L1105.3528,187.77335767828907L1105.9112,187.98827286795049L1107.8655999999999,188.0449499134742L1108.424,187.6548729455855L1108.9824,187.33415346038618L1109.8200000000002,187.1484232953298L1111.2160000000001,187.19101376172634L1111.4952,187.13759783461407L1111.7744,187.10612842830193L1112.0536,187.31368931610135L1112.3328,186.99504624883346L1112.612,186.57562714037843L1113.7287999999999,186.37186102640104L1114.2872,186.55652765288065L1114.8455999999999,186.15624648196493L1115.6832,186.44469618803686L1116.5208,186.2198538790361L1116.8,185.8784009603697L1117.6376,185.4935861866885L1120.7087999999999,185.7469909091679L1122.1047999999998,185.35026584329106L1122.384,185.54057792774805L1124.0592000000001,185.1336255958809L1126.5720000000001,185.10223506455503L1126.8512,185.10867074361238L1128.2472,184.6981373214573L1129.0847999999999,184.34550808454188L1130.76,183.98551232514907L1131.8768,184.14260417793022L1132.9936,183.80072662827646L1133.5520000000001,183.7453099913341L1135.2272,183.3712221594343L1136.0647999999999,183.62452212365767L1137.1816,183.580376386399L1137.74,183.26126016388315L1138.0192,183.06941499624784L1139.136,182.6909089923338L1140.2528,182.31933611938038L1141.0904,182.132941665809L1141.3696,182.0748124406881L1142.2072,182.01679575259004L1144.72,181.6711291470126L1146.9536,181.42242855101148L1148.3496,181.08073365447626L1148.6288,180.70263452204412L1148.908,180.73271232090966L1149.1872,180.41928321870822L1150.0248,180.1757231823121L1151.1416,179.8611361975125L1153.096,179.85747666771303L1159.7968,179.44029295445722L1160.6344000000001,179.10848916391726L1161.1928,178.89676082375885L1161.7512000000002,178.66134496463218L1162.5888,178.43348826876613L1163.1472,178.1573574748408L1163.7056,177.81777975789262L1164.264,177.51087099778323L1164.5432,177.2129466909759L1164.8224,177.4886337155394L1169.848,177.4854064490856L1172.3608,177.19600479685073L1172.6399999999999,177.21500067851522L1174.5944,177.4674201140996L1175.7112,177.71292068235846L1175.9904000000001,177.4676835597603L1177.3864,177.7403668196831L1177.6656,177.42751487385829L1178.5031999999999,177.63139441320106L1180.7368,177.31626231708407L1181.5744,177.03978569271732L1181.8536,177.02475423056984L1184.3664,176.86275921208366L1185.204,176.95721614580643L1185.4832,176.62500763884736L1186.0416,176.27039490578133L1186.3208,176.4534351574421L1187.1584,176.22629570804074L1187.4376,175.91264531467255L1187.7168,176.09892263524912L1189.6712,175.91741351479453L1190.2296000000001,176.08858293984719L1190.788,176.28381940266817L1194.1384,176.48385844839447L1194.9759999999999,176.48563131915256L1195.2552,176.30153588934132L1195.5344,175.91190962832871L1195.8136,175.59677108359952L1196.9304,175.42737294297433L1197.768,175.12124370684802L1201.956,175.34764505104593L1202.2351999999998,175.1365260591372L1202.5144,174.94305386101883L1204.1896000000002,175.12091318350963L1204.748,174.75474498164857L1205.8648,174.9887250204362L1206.9816,174.6440952232652L1207.2608,174.9398341616587L1208.6568,174.85006738490006L1211.4488000000001,174.8833078956891L1213.9616,174.5870165789402L1214.52,174.40837013318247L1214.7992,174.1774991015139L1215.0783999999999,173.88683855009444L1215.916,173.5357607938593L1216.4743999999998,173.468314812132L1217.312,173.47216335070408L1219.8248,173.5068200661632L1220.6624,173.1887869904268L1221.5,173.4604101196481L1224.292,173.52156456835826L1227.6424,173.56130704253954L1229.0384,173.24783402922682L1230.7136,173.44932936658944L1230.9928,173.69486763329726L1231.5511999999999,173.91768310208698L1232.6680000000001,173.87977929872324L1234.3432,173.9064278817985L1235.1808,174.04419888598258L1235.7392,173.90388840360492L1236.2976,173.59992934981955L1237.1352,173.62380164805805L1237.6936,173.35154534258368L1237.9728,173.12291924417843L1238.5312,173.0840643178231L1239.3688,173.04389535971973L1243.2776,173.08752197286893L1243.5568,172.84502197759886L1244.3944,173.08252643970675L1246.628,172.91733768696966L1246.9072,172.67381295526715L1249.42,172.4291344630654L1249.6992,172.4525719974838L1251.0952,172.23718065642987L1251.3744,171.97047788323528L1251.6535999999999,171.75785638914084L1252.4912,171.85416772569087L1252.7703999999999,172.1420017638286L1254.1664,172.15111187973216L1255.5624,172.38550587251189L1256.4,172.09950407307386L1258.6336,172.266865470887L1259.7504,172.25572361495372L1260.3088,171.95612108362852L1262.8216,171.61709828875027L1264.2176,171.2634209463536L1265.8928,170.87571646513135L1266.172,171.02029405821636L1267.2888,170.67792625335198L1267.568,170.38039267531414L1269.5224,170.05782459149034L1271.4768000000001,169.7772614427677L1273.152,169.7722739185011L1273.9895999999999,169.509294984663L1274.548,169.15071204061408L1274.8272,168.88241906636927L1276.7816,169.08665838675395L1278.4568,168.70778396428622L1279.0152,168.49741390135085L1279.2944,168.22637456407048L1279.8528,168.3848645679547L1280.9696,168.1351470100135L1282.0864,167.83236235579813L1283.4824,167.54310257331076L1284.3200000000002,167.76570924748236L1286.8328,167.48804120486673L1287.3912,167.31075505293148L1288.508,166.98365588320425L1289.0664,166.82178359214046L1290.1832,167.0511251013541L1291.0208,166.80816115407023L1292.6960000000001,166.5267376045925L1293.5336,166.2484895303967L1296.0464,166.53108455737382L1297.1632,166.30170717868273L1299.1176,166.01005750678254L1299.9552,166.18868121650283L1301.9096,165.88869093359676L1302.1888,165.7096644100433L1303.0264,165.47175721128121L1303.5847999999999,165.47837627185135L1305.8184,165.46714709660534L1306.0976,165.75098470759986L1306.9352000000001,165.63466757376239L1308.6104,165.86503511234696L1310.0064,165.65837823853363L1314.1944,165.4688095756547L1314.4736,165.65768518230095L1316.7072,165.4157423418731L1318.1032,165.40521184019073L1319.7784,165.6638584098695L1320.3368,165.443605950253L1320.616,165.6445676596986L1322.2912000000001,165.34507131366826L1325.0832,165.5466900877662L1325.9207999999999,165.84895310925268L1326.4792,165.61326318343632L1326.7584,165.32823035179376L1327.0376,165.1676740854839L1328.1544000000001,165.05358957929917L1330.9464,164.78965979167305L1331.2256,165.01286397102734L1331.7839999999999,165.1323111304416L1334.576,165.17249920809084L1334.8552,165.33979430217173L1335.6928,165.5852389938727L1337.9264,165.77918114988447L1339.6016,165.494116327168L1340.7184,165.46727989619805" style="fill: none;" fill="none"></path></g></g></g></g><g opacity="0.2"><g><g><g><path stroke="rgb(255, 112, 67)" stroke-width="2px" d="M140.7168,255.34865533447265L143.5088,235.002869934082L143.78799999999998,229.79404193115235L144.6256,147.11552098846434L144.9048,256.9258778686524L145.7424,263.384962097168L146.85920000000002,330.5520598754883L147.1384,333.8964047241211L150.768,255.2918884277344L152.7224,319.8263790893555L153.0016,213.44267532348633L153.2808,215.28753634643553L154.6768,348.30238293457035L156.9104,185.35071038818361L157.1896,239.50613754272462L158.0272,218.98961883544922L158.3064,245.73826950073243L159.144,217.62673434448243L159.4232,235.47050765991207L161.0984,372.41049572753906L162.4944,214.25281787109375L164.4488,389.55264807128907L167.2408,286.1102164306641L168.3576,220.16498565673828L169.1952,251.1205762939453L169.4744,228.4477687683105L173.38320000000002,224.34151766967773L174.5,229.60178887939455L174.7792,220.40632864379884L175.33759999999998,442.06677795410155L175.89600000000002,263.0956712036133L177.5712,214.15594729614259L179.8048,428.3061844482422L180.3632,199.02764163208008L180.64239999999998,239.24801596069332L181.48000000000002,224.73194732666016L183.43439999999998,323.0601547851562L184.27200000000002,616.2792121582031L184.8304,246.54627218627928L185.3888,226.41105267333984L187.34320000000002,303.22534075927734L187.6224,288.7843864746094L189.01839999999999,246.0152287902832L190.9728,214.7202191162109L191.252,185.02217234802248L191.53119999999998,353.8965476074219L192.9272,443.6550285644531L195.16080000000002,425.05149462890626L195.9984,325.5812583618164L196.2776,465.212794921875L196.83599999999998,340.15646447753903L198.5112,426.39823498535156L199.0696,323.7079158325195L199.628,370.90795495605465L201.02399999999997,379.73992126464844L201.3032,175.97288314819338L202.1408,523.0496096191406L203.53680000000003,157.58695544815063L207.7248,244.04964724731445L208.004,360.0654873046875L211.63360000000003,190.18418582153322L211.91279999999998,361.21379150390624L212.192,450.1764975585938L217.21759999999998,520.8972659912109L218.33440000000002,162.77196306610108L219.172,423.17759838867187L220.00959999999998,450.2678829345703L220.568,278.76435260009765L221.964,186.33289842224121L222.52239999999998,421.90037182617186L222.80159999999998,282.1995406494141L225.59359999999998,484.3521595458985L226.7104,177.10585935974123L227.8272,302.13360736083985L228.38559999999998,354.0998056640625L228.6648,368.9940300292969L229.5024,339.0740518798828L233.69039999999998,296.18092639160153L233.96959999999999,216.8802339477539L235.924,346.96145654296873L236.20319999999998,389.55571655273434L237.8784,544.6637160644532L238.4368,307.13315570068363L239.55360000000002,411.778951171875L241.2288,262.14245782470704L241.50799999999998,467.7684477539063L241.78719999999998,282.6996685180664L242.0664,265.8434848022461L245.13760000000002,175.22078796386717L247.3712,510.46539807128903L248.488,197.81936073303223L249.0464,314.1594244995117L250.4424,460.8017720947266L252.39679999999998,383.8783337402344L255.468,306.0111989135742L257.1432,552.2578154296875L257.42240000000004,536.1553937988282L258.5392,241.78987792968746L261.3312,320.3507894897461L261.6104,467.3184653320313L262.1688,259.2388899536133L263.2856,333.219008605957L263.5648,212.8649067993164L264.1232,401.6929910888672L265.24,577.9246706542968L265.7984,366.15360827636715L266.9152,342.9986165771484L268.3112,263.86145343017574L269.428,356.45372314453124L270.2656,532.3188229980468L270.824,258.28478833007813L271.9408,269.18508416748045L272.22,211.93023696899414L273.616,348.3657136230469L273.89520000000005,212.64985931396484L275.5704,216.44786645507813L276.1288,235.22644802856445L277.5248,221.40660168457032L281.992,144.98737337493898L282.27119999999996,370.86591906738283L282.55039999999997,393.74430908203124L282.8296,533.9808555908203L283.10880000000003,249.45820916748048L283.9464,330.44904656982425L284.2256,308.46794512939454L284.5048,312.78276068115235L288.41360000000003,364.22501000976564L288.69280000000003,431.37572717285155L289.2512,238.03526788330078L289.5304,249.70192272949222L289.8096,256.36382666015623L290.368,343.41384210205075L291.4848,332.45140374755863L292.0432,397.99943920898437L293.15999999999997,459.14573803710937L293.71840000000003,270.23202465820316L294.8352,314.3963781738281L296.5104,172.30783296203612L297.0688,302.95170373535154L298.1856,181.9651804046631L299.58160000000004,353.5895379638672L302.6528,346.4594022216797L302.932,404.6975189208984L303.76959999999997,197.7510495300293L304.328,309.4223812866211L304.60720000000003,353.8658397216797L305.4448,367.6967775878906L306.0032,439.75215087890626L307.9576,420.98091174316403L309.3536,238.53172164916992L310.7496,376.26889196777347L311.0288,366.3433004150391L313.26239999999996,253.35589581298828L313.5416,222.81352349853512L314.3792,377.3512814941406L314.9376,244.00901293945313L315.2168,363.44543115234376L316.3336,332.6786444091797L317.4504,370.59377014160157L319.1256,355.5106380615234L319.4048,269.1006086425781L320.8008,382.31036279296876L321.3592,344.5764851074219L322.476,208.99640533447266L323.3136,344.4283905029297L323.872,244.691421295166L325.8264,194.6631016845703L326.66400000000004,147.73960836982727L328.06,191.69275108337402L328.3392,382.2220228271484L329.45599999999996,216.06169345092772L330.57280000000003,363.1125124511719L332.8064,329.7419577026367L333.3648,357.18646728515625L334.2024,334.78814465332033L337.832,335.33821032714843L339.228,138.5872377319336L340.9032,337.76926666259766L341.46160000000003,354.3745155029297L342.02,326.9466172485351L342.2992,289.1771174926758L342.8576,309.41971655273437L343.1368,216.5415416564941L343.6952,323.4191901855469L343.9744,302.150830078125L344.2536,196.20584706115724L345.64959999999996,241.60543450927736L347.3248,303.6740542602539L352.90880000000004,209.27601782226563L353.188,258.70365911865235L355.1424,299.1576071777344L355.98,171.56915517425537L356.25919999999996,372.94568041992187L356.81759999999997,264.89562396240234L357.37600000000003,331.74105029296874L357.93440000000004,340.1425524902344L359.6096,308.0940633544922L364.0768,165.98005753326416L364.356,194.2601212463379L364.91440000000006,363.6755903320312L365.752,267.089657409668L367.9856,344.9929449462891L368.2648,177.72382095336914L370.7776,326.2125811157227L371.8944,168.16457984161377L372.1736,372.5862528076172L372.732,155.47208283805847L373.0112,329.453751159668L374.12800000000004,213.09266079711912L374.9656,104.87171530151367L375.524,324.14036407470707L377.1992,200.45004428100586L378.8744,352.977456665039L379.71200000000005,276.10627478027345L380.27039999999994,191.7166298675537L381.3872,271.75606787109376L382.504,126.13253974914551L382.7832,179.2078585510254L386.4128,295.9525090942383L386.9712,317.11757904052735L388.64639999999997,203.0831070556641L389.48400000000004,173.22476818084715L390.0424,199.25068908691406L391.1592,138.93232509613037L391.4384,158.83940200424195L393.1136,289.80815185546874L393.67199999999997,220.96546710205078L395.90560000000005,85.80437924194338L398.6976,294.92765936279295L399.256,323.1271653442383L399.8144,281.21851483154296L402.6064,211.19693334960934L404.56080000000003,308.6869493408203L405.3984,15.57992614746094L406.236,306.7214254760742L408.4696,263.57448120117186L412.9368,312.01985083007816L413.7744,280.18989294433595L414.8912,192.42399559020996L416.5664,216.1962682800293L417.1248,97.894986328125L418.5208,239.00267587280274L419.3584,298.50425134277344L419.63759999999996,-17.909837951660183L419.9168,286.41557647705076L420.47520000000003,345.7499139404297L422.4296,183.30888400268555L422.988,300.6688458251953L424.9424,335.2088842163086L426.05920000000003,179.43755918884276L426.6176,294.7345411376953L428.85119999999995,215.34374954223637L429.1304,347.54659057617187L431.6432,66.50145071411133L434.43519999999995,311.33436822509765L435.552,229.25901873779299L436.1104,306.49357342529294L438.344,298.0408760375976L438.6232,62.47735647583008L439.1816,293.58206103515624L440.2984,285.94576428222655L442.8112,184.05636492919922L446.1616,315.9702092285156L447.27840000000003,345.42527783203127L447.8368,88.52395358276365L448.67440000000005,72.33611627197266L449.23279999999994,345.89401721191405L449.7912,46.56000695800783L452.5832,315.0278047485352L452.86240000000004,35.99528302001952L453.7,287.5068599853515L453.9792,268.61202795410156L454.81679999999994,207.7642196960449L455.6544,300.26041479492187L456.21279999999996,187.36460609436037L457.6088,102.67971789550779L459.5632,88.92847979736328L460.9592,95.07589974975586L461.2384,206.12480273437504L464.0304,176.30899433898924L464.5888,269.40285406494144L467.38079999999997,308.72093334960937L467.93919999999997,318.5020524902344L468.2184,282.30120428466796L469.6144,329.6453928222656L470.1728,86.21459829711914L471.5688,297.49583990478516L472.6856,306.2390625L472.96479999999997,197.47742692565922L476.3152,316.83682452392577L478.54879999999997,347.1161033935547L479.66560000000004,289.28603704833984L481.0616,85.85767968749998L481.61999999999995,273.66623217773434L482.7368,177.34557293701172L486.9248,145.55533443832397L487.4832,79.83942434692385L488.59999999999997,334.22492834472655L488.8792,197.43391735839847L489.1584,153.47842623996735L489.7168,255.3573186035156L490.5544,0.23340069580078326L491.392,338.07285021972655L491.6712,185.8827573852539L493.3464,291.0744656982422L494.46320000000003,333.8224612426758L495.85920000000004,62.350522064208995L496.41760000000005,55.33956106567385L497.5344,83.39042449951174L498.37199999999996,341.82192315673825L499.768,78.66149084472654L500.6056,309.3585891723633L502.00159999999994,198.2320484161377L502.2808,90.80162622070313L503.1184,208.15981732177738L504.2352,320.3349279785156L506.748,231.1439545898438L508.7024,198.65492784118652L509.53999999999996,305.9929033813477L509.8192,84.06066275024412L512.332,303.40399328613285L515.124,68.15317620849609L515.9616,328.14427093505856L517.6368,308.5183789672852L519.312,65.51205001831055L520.4288,0.42026660156250806L523.5,215.94289361572265L523.7792,275.2354605102539L524.896,325.2019432983398L526.5712,1.497834228515636L527.688,178.00040245056152L528.5255999999999,-20.29324053955082L535.2264,331.59956561279296L536.3432,107.29600309753418L539.1351999999999,99.74266204833982L540.5312,175.734605758667L541.0896,91.28345278930662L541.3688,33.38605865478517L541.648,191.3374359283447L541.9272,87.70345202636719L544.1608,337.9399019165039L546.3944,310.37356439208986L546.6736,295.1013977050781L547.232,128.06814015197756L547.5112,29.142037353515608L550.8616,176.01037399291994L551.1408,332.78620275878905L551.6992,280.3526954956055L554.7704,328.8258775634766L555.6080000000001,326.7464507446289L556.7248,64.13128527832029L557.8416,299.11377172851564L558.9584,-10.565623718261719L560.9128,204.95968533325197L561.192,310.85703479003905L561.4712,200.59020236206055L562.0296000000001,72.57478298950195L562.8672,330.93605841064453L566.2176000000001,7.0897263793945395L567.8928,-8.900776428222656L568.7304,188.5047891998291L569.0096,326.93188623046876L571.8016,-15.326153503417974L572.6392,286.2870001831055L572.9184,-3.7469503784179956L576.548,-53.70144763183597L576.8272000000001,196.7162964477539L577.3856000000001,312.7017112426758L578.5024,22.706232055664056L578.7816,285.45484185791014L579.6192,154.8351076183319L580.736,281.53695629882816L582.132,163.48624008178712L585.2032,122.99569230651854L586.5992,-11.04446832275393L587.1576,334.2395209350586L589.3912,305.76823516845707L593.8584,271.10734936523437L596.092,-29.073019592285178L596.6504,207.90277432250977L597.4879999999999,14.001180908203125L599.1632000000001,75.43726089477539L599.4424,35.381159912109396L601.3968,24.881658508300802L603.6304,11.93357812499999L604.7471999999999,197.21512655639648L605.864,291.65100567626956L606.9808,-23.334474792480496L607.8184,294.4072979736328L608.3768,291.9953562011719L610.052,175.28562261199951L610.6104,284.73251440429686L610.8896,285.00729345703127L612.5648,183.069300201416L612.844,-2.339417175292958L614.7984,-19.97511053466799L615.3568,125.00883242797852L616.1944,190.84408525085448L616.7528000000001,199.3023831939697L617.032,203.71335122680668L617.3112,-40.01475146484376L619.2656,44.99775769042971L620.3824000000001,-47.886167724609386L620.6616,278.20085943603516L621.22,10.907817077636727L622.616,9.555505004882829L624.8496,-2.0887245483398753L625.1288,295.183842956543L626.2456,269.832026184082L626.804,-23.731300964355427L629.0376,283.6127955322265L629.3168,-2.472423156738257L632.388,12.658616455078146L635.1800000000001,189.71596266174316L635.7384000000001,-52.80662768554691L637.6928,292.85634210205075L637.972,276.4597153930664L638.2512,164.4317216949463L639.0888,-24.815824584960975L639.9264,-10.993250061035154L641.0432,157.66842016983034L642.1600000000001,192.1991572265625L647.4648,297.35046771240235L648.5816,346.6404195556641L649.6984,204.2437947692871L650.5360000000001,290.3537647705078L651.0944,239.9736714477539L652.2112,302.5985630493164L652.7696,296.19314263916016L655.2823999999999,110.25688293457031L656.3992000000001,-31.486103393554682L658.9119999999999,-1.0253572998046714L660.308,4.929134765624982L660.5872,30.519081848144552L660.8664,296.725766418457L664.496,283.93608197021484L665.3336,157.04344274139405L666.7296,195.21420556640624L668.684,316.7079483032226L669.8008,292.85946826171875L670.6384,202.03534176635742L672.3136,116.05095167541504L672.5928,24.605287536621088L672.872,209.2587604980469L673.7095999999999,1.3568686523437476L675.1056,-42.490416137695334L676.7808,5.487148498535175L677.06,75.57560787963865L679.852,4.0493226928710735L680.1312,284.52767596435547L681.2479999999999,315.47605682373046L681.5272,161.41895164489748L682.644,177.94317700195313L683.2024,334.4725409545899L684.8776,70.67716946411133L685.7152,-13.512450256347632L686.832,-20.735113403320355L687.1112,311.19602124023436L687.6696,179.09643287658693L687.9488,-20.144338439941407L688.5072,324.9826737670898L691.5784,306.0281447753906L692.1368,299.7616827392578L694.3704,201.93484323120117L694.6496,324.56522186279295L695.4871999999999,211.74074670410153L705.2592,136.9816346282959L707.772,-57.66156518554684L708.0512,1.8314796752929667L710.0056000000001,33.67383837890626L711.1224,2.851196044921883L713.0768,167.68230626678465L713.356,-19.61481774902346L716.7063999999999,293.0986944580078L717.544,-30.517559143066368L720.0568000000001,265.87610760498046L722.2904,37.27170208740235L722.8488000000001,9.2515869140625L725.0824,168.7780511856079L725.3616,323.65895855712887L725.9200000000001,-23.06602880859377L726.7575999999999,321.3438931274414L728.4328,190.5519911956787L728.712,272.8738602905274L729.8288000000001,23.142198669433604L730.1080000000001,201.45363381958006L731.2248000000001,-6.246216979980442L731.504,203.798674621582L732.6208,8.897500305175784L733.4584,289.0067360229492L735.9712,7.473205810546867L736.8088,-72.79552331542965L739.6008,190.41591673278805L742.3928000000001,285.2832837524414L745.1848000000001,157.4087946281433L747.1392,131.93404032897948L750.2103999999999,178.7647830963135L752.1647999999999,259.6829891967773L754.1192,274.9176650390625L754.6776,23.43824945068361L756.3527999999999,311.7077193603516L756.9112,188.34697581481933L757.7488,-48.73825964355472L758.028,82.24826303100586L759.7032,114.85634916687012L760.82,150.14705385446547L763.8912,-34.97349023437498L764.7288,177.85340661621092L766.1247999999999,321.36615692138673L769.7544,64.34453320312498L772.5464,318.4883942871094L776.4552,-2.204461669921858L781.7600000000001,206.28947982788085L783.1560000000001,314.9208577880859L783.4352,51.17007733154297L784.8312000000001,217.38596813964844L786.2272,357.8195203857422L787.0648,84.67172891235352L788.4608,18.32881256103514L790.6944,311.62423590087894L791.5319999999999,168.07081956481932L793.4864,306.9076338500976L793.7656,301.3103199462891L794.0448,72.68594046020507L794.6032,9.698950744628895L796.2784,322.5572122192383L798.2328,306.18606774902344L802.1416,279.6947484741211L805.2128,-55.282753784179654L806.6088,5.720318481445329L807.1672000000001,145.80445713615416L807.7256,-28.07299456787109L808.0047999999999,-14.579555053710967L808.8424,319.8903673095703L809.1216000000001,-2.5586636352539096L817.4976,282.9268053588867L818.3352000000001,-12.619625976562508L819.452,174.83911097717285L819.7312000000001,-32.2517125854492L821.1271999999999,-29.789313903808583L821.4064000000001,365.9934473876953L824.7568,321.9722742919922L826.9904,29.840312988281266L827.5488,309.05491333007814L827.828,332.45758685302735L828.9448,61.682573638916004L831.1784,278.75218249511715L833.4119999999999,-10.341543823242155L834.5288,138.09482432556152L835.6456000000001,-31.884775268554655L837.0416,317.3365601806641L837.6,192.0285536956787L838.4376,-26.8938901977539L838.996,314.3637207641601L839.2751999999999,327.42774591064455L839.8336,205.30352828979488L841.2296,10.474434448242201L842.3464,157.89430611419678L842.6256000000001,13.190155883789057L842.9048,110.1413592224121L843.4631999999999,199.28584396362305L844.0216,277.05051342773436L845.4176,232.64593588256835L845.976,-23.468011413574256L848.2096,160.25286020278932L855.7479999999999,-12.995826416015646L856.0272,12.930615417480466L856.5856,283.28640600585936L859.0984,217.5048198852539L859.3776,329.83674609375004L861.0528,353.48149511718754L861.332,19.40853735351563L862.1696000000001,41.03323352050779L862.4488,175.37956745910643L863.2864,287.3117114868164L865.2408,109.46892919921875L865.7991999999999,216.6065334777832L867.1952,31.207575256347646L870.5456,-26.497710021972683L870.8248,298.1804227294922L873.0583999999999,-44.515452392578084L873.3376000000001,156.7491875553131L875.0128000000001,-22.815659179687458L875.292,295.8752779541016L876.1296000000001,313.1081350708008L876.4088,-28.69262017822265L876.688,-34.55262377929689L877.5256,337.0552679443359L882.8303999999999,9.94250280761719L885.064,6.773949645996105L885.3432,282.41836029052735L885.6224,192.57115003967286L886.1808000000001,11.415673828124984L888.1351999999999,218.69327966308597L888.9728,74.31947424316408L889.5312,37.427860107421886L890.3688000000001,140.763982131958L891.4856,306.3161090698242L893.9984,336.7186693725586L895.1152,270.2771290283203L895.6736,154.9693471927643L896.7904,305.1424495239258L897.0695999999999,18.165375549316412L898.1863999999999,19.376214477539072L898.4655999999999,168.43898398590088L898.7448,284.7410046386719L900.1408,0.29280926513673755L901.5368000000001,184.7632778778076L901.816,281.339616027832L902.9328,-1.6798320922851468L904.3288000000001,34.457316284179676L904.6080000000001,361.30732250976564L904.8872,-5.404403320312491L905.7248000000001,185.71540979003905L906.004,-12.727680358886708L908.2375999999999,9.256904846191398L908.5168000000001,52.75979296875002L908.796,283.5794344482422L910.192,8.607390380859364L910.4712,-27.931521423339806L911.5880000000001,-7.490209350585911L912.4255999999999,183.46059214782713L913.2632,302.8972554931641L913.8216,197.38563203430172L914.38,268.54168359375L915.2176,334.1895254516602L917.172,330.6001865844726L920.5224,-17.352101074218755L921.0808000000001,176.43397727966308L924.7103999999999,186.1992608642578L924.9896,-11.908638061523467L928.0608,-16.247136291503864L930.8527999999999,212.71262475585934L931.4112,-45.29828430175779L931.9696,4.701225036621102L932.8072,322.9176088256836L933.6447999999999,-22.546324951171854L934.4824,184.21281422424315L935.5992,242.17523190307617L935.8783999999999,307.4424378662109L937.2744,147.67317891883852L937.8327999999999,173.89976776885985L938.3912,147.3784597835541L938.6704,149.0380504245758L939.7872,-11.341280456542947L943.4168,18.654406127929693L943.9752000000001,239.31411520385743L944.2544,-24.24687506103515L944.8127999999999,193.05278915405273L946.2088,4.5722796020507905L946.7672,201.27547155761718L947.3256,368.48491589355467L947.884,189.46263702392577L950.1175999999999,169.5320252380371L952.3512000000001,209.69297946166992L953.1887999999999,279.76524279785156L953.4680000000001,179.9260475921631L954.3056,-10.914219360351533L954.864,101.05919631958008L955.1432000000001,288.4729702148437L955.9807999999999,185.15488128662108L957.6560000000001,318.742962890625L958.7728,221.06499087524418L959.052,295.55758630371093L962.9608,197.70507133483886L963.7984,167.63007719421387L964.636,-1.4790888061523129L965.4736,64.68565951538086L966.5904,-40.995973388671864L967.4279999999999,285.60955792236325L967.9864,-11.01598681640622L969.6616,-46.249836547851594L971.0576,291.81453497314453L971.3367999999999,339.6854525756836L972.7328,192.0896666564941L973.2912,-35.75051971435549L975.2456,26.364138793945322L976.0832,19.245965515136714L976.6416,147.62510159683228L976.9208,335.06183935546875L977.7584,-36.93273870849608L978.3168,10.755304321289055L979.992,-18.305718200683614L982.5047999999999,304.1789924926758L983.9008,7.82933422851561L985.2968,282.1307420654297L986.6928,-33.96370605468748L990.3224,299.96150317382813L990.6016,284.8688426513672L990.8808,-13.114101379394516L993.6727999999999,263.95871044921876L995.6271999999999,-38.68841766357424L996.4648,-1.7932851562499805L997.8608,15.269132812500011L1000.3736,303.90369433593753L1000.6528,289.5502494506836L1002.328,325.6797035522461L1004.0031999999999,-6.028677795410128L1004.8408,-23.510427978515615L1005.9576000000001,311.0075749511719L1006.2368,23.598837158203125L1006.516,316.4507034301758L1007.0744000000001,170.12524143218994L1008.1912,310.74682324218753L1009.0288,330.4152586669922L1009.308,-26.500144042968728L1010.4248,373.0918370361328L1010.704,6.061231384277359L1010.9831999999999,74.20034564208984L1012.3792,296.8446527709961L1012.9376,150.70181237268446L1015.7296,230.96252197265625L1017.684,-14.452974426269499L1019.0799999999999,356.11236035156253L1019.6384,3.3700116577148345L1020.476,20.863862731933594L1023.8264,15.048986572265608L1024.664,214.99678619384764L1025.5016,98.76676382446287L1026.8976,-77.16903222656252L1029.4104,298.62260705566405L1030.248,15.128109558105455L1030.8064,-11.85358996582029L1032.7608,187.79235356140137L1033.8776,359.46191931152345L1034.1568,335.30691412353514L1036.3904,-15.830722595214825L1037.5072,2.428887634277347L1037.7864,306.38270434570313L1038.624,141.71466776275636L1039.1824,282.6075794677734L1041.1368,192.33703990173336L1042.2536,328.26890203857425L1043.3704,193.68666705322266L1044.4872,-4.6196334228515665L1045.0456000000001,108.68611747741697L1046.7208,1.8932991943359399L1050.6296,138.5969377670288L1051.188,110.04306399536131L1052.0256000000002,168.11539473724363L1052.8632,181.8458701171875L1053.7008,68.6699557800293L1053.98,301.62772320556644L1055.376,282.34386309814454L1057.6096,317.81772344970705L1059.2848000000001,50.61115228271483L1060.1224,287.86960986328126L1060.4016000000001,18.59400549316406L1062.6352,15.774693969726544L1064.8688,330.7700489501953L1068.4984,-21.013295471191423L1070.4528,305.58027337646485L1072.128,147.4782258052826L1073.5240000000001,132.20486265563963L1075.7576,292.3452092285156L1076.5952,181.44714056396484L1078.8288,14.96824859619139L1079.108,305.5751284790039L1079.3872,0.5756286621093918L1080.5040000000001,-0.029773498535136778L1081.0624,-42.01873516845702L1081.6208000000001,325.2573951416016L1082.4584,302.29480645751954L1083.0168,47.098156311035154L1084.4128,-31.70322729492187L1084.692,16.985867431640635L1085.5295999999998,2.377357910156247L1086.9256,167.5671920700073L1087.2048,281.3834284057617L1088.0424,17.16922650146486L1089.4384,-40.14560028076174L1089.9968000000001,51.61463800048829L1090.8344,-36.60891009521483L1091.1136,315.1007677001953L1091.3928,289.0151801147461L1092.2304,290.95181872558595L1093.9056,178.35453231811522L1095.0224,-16.65756298828127L1096.1392,290.5488901977539L1098.0936,212.74797573852538L1098.3728,-30.899735046386734L1098.9312,-24.17093591308595L1099.7687999999998,153.5947309513092L1103.9568,26.30513397216796L1104.236,264.89624688720704L1105.3528,232.00311785888672L1105.9112,305.48115911865233L1107.8655999999999,219.0555969543457L1108.424,-25.95063208007812L1108.9824,11.563918395996104L1109.8200000000002,85.27529690551758L1111.2160000000001,210.57110156249996L1111.4952,157.7908205680847L1111.7744,169.8026485748291L1112.0536,301.5344459838867L1112.3328,11.502791015624979L1112.612,-44.60690698242183L1113.7287999999999,73.96535302734375L1114.2872,288.50951513671873L1114.8455999999999,-35.01471862792967L1115.6832,345.9531950683594L1116.5208,61.785039001464824L1116.8,-3.2445384521484657L1117.6376,-27.817779968261757L1120.7087999999999,326.3275338134766L1122.1047999999998,-34.9158927612305L1122.384,291.2884172973633L1124.0592000000001,-41.17184582519529L1126.5720000000001,167.63211323547364L1126.8512,188.69323837280274L1128.2472,-44.14370471191408L1130.76,-17.003113220214882L1131.8768,271.91752075195313L1132.9936,-7.373526306152341L1133.5520000000001,152.7325491285324L1135.2272,-26.14356573486326L1136.0647999999999,325.60101892089847L1137.1816,158.81700771331788L1137.74,4.114545227050787L1138.0192,75.28666882324217L1139.136,-30.127389038085937L1140.2528,-26.763029846191433L1141.0904,77.16830548095703L1141.3696,149.31506306648254L1142.2072,149.29520625686644L1144.72,-13.436257324218774L1146.9536,40.93827209472654L1148.3496,-12.081695800781285L1148.6288,-33.203334045410124L1148.908,197.76197090148926L1149.1872,2.8283093261718784L1150.0248,42.06770397949221L1151.1416,1.3421837768554543L1153.096,177.77922088623046L1159.7968,-57.65918884277342L1160.6344000000001,-9.609618713378868L1161.1928,58.38217382812501L1161.7512000000002,44.5627716064453L1162.5888,48.542961181640614L1163.1472,20.62956225585936L1163.7056,-16.050891906738297L1164.264,2.161883605957027L1164.5432,6.869718566894539L1164.8224,335.23510473632814L1169.848,175.63740641784668L1172.3608,11.355192443847656L1172.6399999999999,188.10862921142578L1174.5944,322.3306060180664L1175.7112,318.70974023437503L1175.9904000000001,36.518020751953145L1177.3864,334.5803415527344L1177.6656,-2.6489877319336173L1178.5031999999999,295.0700784301758L1180.7368,-4.339409545898427L1181.5744,17.549960449218734L1181.8536,168.347277053833L1184.3664,83.27672341918945L1185.204,231.56566314697264L1185.4832,-15.574723571777376L1186.0416,-29.040431396484347L1186.3208,282.5054890136719L1187.1584,44.52821081542969L1187.4376,-6.076966003417958L1187.7168,284.26076422119144L1189.6712,70.4482907409668L1190.2296000000001,275.62117785644534L1190.788,289.8925697021484L1194.1384,292.97068341064454L1194.9759999999999,177.51874891662598L1195.2552,68.94566345214844L1195.5344,-51.46198681640622L1195.8136,-8.43930450439452L1196.9304,76.43115472412111L1197.768,-3.9075034790039083L1201.956,307.8441551513672L1202.2351999999998,51.49632843017578L1202.5144,61.55759069824221L1204.1896000000002,279.4298093261719L1204.748,-40.142439514160124L1205.8648,312.4036071166992L1206.9816,-27.896522277832L1207.2608,348.86869079589843L1208.6568,122.019889251709L1211.4488000000001,194.45989265441895L1213.9616,-0.0315615234374671L1214.52,69.05033212280271L1214.7992,37.92515020751954L1215.0783999999999,2.2298862304687512L1215.916,-33.94549127197266L1216.4743999999998,133.58131594848635L1217.312,175.7497261047363L1219.8248,194.03075514221192L1220.6624,-15.281868164062505L1221.5,334.538294128418L1224.292,209.8121888122559L1227.6424,197.16163288879395L1229.0384,-13.029268249511711L1230.7136,293.26676879882814L1230.9928,319.8013352050781L1231.5511999999999,306.5930568237305L1232.6680000000001,151.29468001914026L1234.3432,189.79581239318847L1235.1808,256.24650915527343L1235.7392,90.12992294311523L1236.2976,-8.004445312499989L1237.1352,187.89620896911623L1237.6936,10.469866333007818L1237.9728,36.25208953857424L1238.5312,149.80735922384264L1239.3688,148.96393228626252L1243.2776,199.25766526794433L1243.5568,27.28061114501954L1244.3944,315.7429916381836L1246.628,73.62854104614256L1246.9072,26.203274230957042L1249.42,25.16738488769529L1249.6992,186.56795159912107L1251.0952,42.43114599609374L1251.3744,11.13579602050781L1251.6535999999999,43.452615783691385L1252.4912,230.01079669189457L1252.7703999999999,346.06142248535156L1254.1664,177.65935977172853L1255.5624,314.1995454711914L1256.4,-1.0511856079101562L1258.6336,273.65636920166014L1259.7504,165.50147536468506L1260.3088,-9.782099670410172L1265.8928,-64.76090075683598L1266.172,258.947326538086L1267.2888,-37.67200048828123L1271.4768000000001,-1.28938513183591L1273.152,166.72930918121338L1273.9895999999999,8.959562072753922L1274.548,-49.904974731445336L1274.8272,4.880085205078144L1276.7816,294.0134133911133L1278.4568,-63.18450878906251L1279.0152,39.65779248046877L1279.2944,2.1255232543945475L1279.8528,265.5733892211914L1280.9696,14.908136352539055L1282.0864,-18.073378784179667L1283.4824,-10.169916503906252L1284.3200000000002,304.61456689453127L1286.8328,-3.3168323364258074L1287.3912,58.186800384521504L1288.508,-34.47930322265627L1289.0664,67.06135052490232L1290.1832,308.4799998779297L1291.0208,16.885795715332048L1292.6960000000001,-7.234844787597686L1293.5336,-5.658602783203117L1296.0464,341.2315288696289L1297.1632,24.413103698730463L1299.1176,-14.509983581542969L1299.9552,276.81783947753905L1301.9096,-20.021772216796876L1302.1888,54.69515689086915L1303.0264,17.855147460937506L1303.5847999999999,169.58787506103516L1305.8184,158.49117406082155L1306.0976,342.1884797973633L1306.9352000000001,93.28638674926758L1308.6104,309.23856079101563L1310.0064,36.96379266357424L1314.1944,47.34449999999999L1314.4736,283.42113079833985L1316.7072,14.474165405273443L1318.1032,158.83156713867186L1319.7784,327.2203927001953L1320.3368,27.786449157714838L1320.616,291.3202210693359L1322.2912000000001,-22.06320062255856L1325.0832,291.7838386230469L1325.9207999999999,355.2139874267578L1326.4792,17.867871276855464L1326.7584,-13.454495178222661L1327.0376,64.40138662719727L1328.1544000000001,93.410948638916L1330.9464,-1.0505511474609341L1331.2256,305.34588061523436L1331.7839999999999,240.27540353393553L1334.576,190.469309463501L1334.8552,270.7072816772461L1335.6928,320.2643067626953L1337.9264,288.0729140625L1339.6016,-14.363688537597648L1340.7184,148.52531824207304" style="fill: none;" fill="none"></path></g></g></g></g></g></g><g transform="translate(50, 378)" clip-path="url(#clip_1)"><clipPath id="clip_1"><rect width="1396" height="22"></rect></clipPath><g><g><line x1="0" y1="0" x2="0" y2="5" style="visibility: inherit;" fill="rgb(0, 0, 0)" stroke="rgb(204, 204, 204)" stroke-width="1px"></line><line x1="139.6" y1="0" x2="139.6" y2="5" style="visibility: inherit;" fill="rgb(0, 0, 0)" stroke="rgb(204, 204, 204)" stroke-width="1px"></line><line x1="279.2" y1="0" x2="279.2" y2="5" style="visibility: inherit;" fill="rgb(0, 0, 0)" stroke="rgb(204, 204, 204)" stroke-width="1px"></line><line x1="418.8" y1="0" x2="418.8" y2="5" style="visibility: inherit;" fill="rgb(0, 0, 0)" stroke="rgb(204, 204, 204)" stroke-width="1px"></line><line x1="558.4" y1="0" x2="558.4" y2="5" style="visibility: inherit;" fill="rgb(0, 0, 0)" stroke="rgb(204, 204, 204)" stroke-width="1px"></line><line x1="698" y1="0" x2="698" y2="5" style="visibility: inherit;" fill="rgb(0, 0, 0)" stroke="rgb(204, 204, 204)" stroke-width="1px"></line><line x1="837.6" y1="0" x2="837.6" y2="5" style="visibility: inherit;" fill="rgb(0, 0, 0)" stroke="rgb(204, 204, 204)" stroke-width="1px"></line><line x1="977.1999999999999" y1="0" x2="977.1999999999999" y2="5" style="visibility: inherit;" fill="rgb(0, 0, 0)" stroke="rgb(204, 204, 204)" stroke-width="1px"></line><line x1="1116.8" y1="0" x2="1116.8" y2="5" style="visibility: inherit;" fill="rgb(0, 0, 0)" stroke="rgb(204, 204, 204)" stroke-width="1px"></line><line x1="1256.4" y1="0" x2="1256.4" y2="5" style="visibility: inherit;" fill="rgb(0, 0, 0)" stroke="rgb(204, 204, 204)" stroke-width="1px"></line><line x1="1396" y1="0" x2="1396" y2="5" style="visibility: inherit;" fill="rgb(0, 0, 0)" stroke="rgb(204, 204, 204)" stroke-width="1px"></line></g><g transform="translate(0, 8)"><text x="0" y="0" dx="0em" dy="0.95em" style="text-anchor: middle; visibility: hidden; font-family: Roboto, sans-serif; font-size: 12px; font-weight: 200;" fill="rgb(50, 49, 63)" stroke="none" stroke-width="1px">-500</text><text x="139.6" y="0" dx="0em" dy="0.95em" style="text-anchor: middle; visibility: inherit; font-family: Roboto, sans-serif; font-size: 12px; font-weight: 200;" fill="rgb(50, 49, 63)" stroke="none" stroke-width="1px">0</text><text x="279.2" y="0" dx="0em" dy="0.95em" style="text-anchor: middle; visibility: inherit; font-family: Roboto, sans-serif; font-size: 12px; font-weight: 200;" fill="rgb(50, 49, 63)" stroke="none" stroke-width="1px">500</text><text x="418.8" y="0" dx="0em" dy="0.95em" style="text-anchor: middle; visibility: inherit; font-family: Roboto, sans-serif; font-size: 12px; font-weight: 200;" fill="rgb(50, 49, 63)" stroke="none" stroke-width="1px">1k</text><text x="558.4" y="0" dx="0em" dy="0.95em" style="text-anchor: middle; visibility: inherit; font-family: Roboto, sans-serif; font-size: 12px; font-weight: 200;" fill="rgb(50, 49, 63)" stroke="none" stroke-width="1px">1.5k</text><text x="698" y="0" dx="0em" dy="0.95em" style="text-anchor: middle; visibility: inherit; font-family: Roboto, sans-serif; font-size: 12px; font-weight: 200;" fill="rgb(50, 49, 63)" stroke="none" stroke-width="1px">2k</text><text x="837.6" y="0" dx="0em" dy="0.95em" style="text-anchor: middle; visibility: inherit; font-family: Roboto, sans-serif; font-size: 12px; font-weight: 200;" fill="rgb(50, 49, 63)" stroke="none" stroke-width="1px">2.5k</text><text x="977.1999999999999" y="0" dx="0em" dy="0.95em" style="text-anchor: middle; visibility: inherit; font-family: Roboto, sans-serif; font-size: 12px; font-weight: 200;" fill="rgb(50, 49, 63)" stroke="none" stroke-width="1px">3k</text><text x="1116.8" y="0" dx="0em" dy="0.95em" style="text-anchor: middle; visibility: inherit; font-family: Roboto, sans-serif; font-size: 12px; font-weight: 200;" fill="rgb(50, 49, 63)" stroke="none" stroke-width="1px">3.5k</text><text x="1256.4" y="0" dx="0em" dy="0.95em" style="text-anchor: middle; visibility: inherit; font-family: Roboto, sans-serif; font-size: 12px; font-weight: 200;" fill="rgb(50, 49, 63)" stroke="none" stroke-width="1px">4k</text><text x="1396" y="0" dx="0em" dy="0.95em" style="text-anchor: middle; visibility: hidden; font-family: Roboto, sans-serif; font-size: 12px; font-weight: 200;" fill="rgb(50, 49, 63)" stroke="none" stroke-width="1px">4.5k</text></g><line x1="0" y1="0" x2="1396" y2="0" fill="rgb(0, 0, 0)" stroke="rgb(204, 204, 204)" stroke-width="1px"></line></g></g></g></g></svg>